<mxfile host="Electron" modified="2023-07-19T17:07:43.450Z" agent="Mozilla/5.0 (X11; Linux x86_64) AppleWebKit/537.36 (KHTML, like Gecko) draw.io/21.6.1 Chrome/112.0.5615.204 Electron/24.6.1 Safari/537.36" etag="nJu3rPFpW-vyD4l6Yxmq" version="21.6.1" type="device" pages="2">
  <diagram name="Modelo E-R v1" id="yHmmyd7FTC4s6OF_Ok30">
    <mxGraphModel dx="777" dy="482" grid="1" gridSize="10" guides="1" tooltips="1" connect="1" arrows="1" fold="1" page="1" pageScale="1" pageWidth="827" pageHeight="1169" math="0" shadow="0">
      <root>
        <mxCell id="0" />
        <mxCell id="1" parent="0" />
        <mxCell id="ufnq5izGLjDM3eV9SagC-4" style="edgeStyle=orthogonalEdgeStyle;rounded=0;orthogonalLoop=1;jettySize=auto;html=1;shape=link;" parent="1" source="ufnq5izGLjDM3eV9SagC-1" target="ufnq5izGLjDM3eV9SagC-2" edge="1">
          <mxGeometry relative="1" as="geometry" />
        </mxCell>
        <mxCell id="ufnq5izGLjDM3eV9SagC-19" style="rounded=0;orthogonalLoop=1;jettySize=auto;html=1;endArrow=none;endFill=0;strokeColor=default;" parent="1" source="ufnq5izGLjDM3eV9SagC-1" target="ufnq5izGLjDM3eV9SagC-7" edge="1">
          <mxGeometry relative="1" as="geometry" />
        </mxCell>
        <mxCell id="ufnq5izGLjDM3eV9SagC-24" style="edgeStyle=orthogonalEdgeStyle;rounded=0;orthogonalLoop=1;jettySize=auto;html=1;shape=link;" parent="1" source="ufnq5izGLjDM3eV9SagC-1" target="ufnq5izGLjDM3eV9SagC-3" edge="1">
          <mxGeometry relative="1" as="geometry">
            <Array as="points">
              <mxPoint x="200" y="260" />
              <mxPoint x="325" y="260" />
            </Array>
          </mxGeometry>
        </mxCell>
        <mxCell id="ufnq5izGLjDM3eV9SagC-1" value="Producto" style="shape=ext;margin=3;double=1;whiteSpace=wrap;html=1;align=center;fillColor=#dae8fc;strokeColor=#6c8ebf;" parent="1" vertex="1">
          <mxGeometry x="120" y="200" width="100" height="40" as="geometry" />
        </mxCell>
        <mxCell id="ufnq5izGLjDM3eV9SagC-26" style="edgeStyle=orthogonalEdgeStyle;rounded=0;orthogonalLoop=1;jettySize=auto;html=1;exitX=1;exitY=0.5;exitDx=0;exitDy=0;" parent="1" source="ufnq5izGLjDM3eV9SagC-2" target="ufnq5izGLjDM3eV9SagC-25" edge="1">
          <mxGeometry relative="1" as="geometry" />
        </mxCell>
        <mxCell id="ufnq5izGLjDM3eV9SagC-2" value="Vender" style="shape=rhombus;double=1;perimeter=rhombusPerimeter;whiteSpace=wrap;html=1;align=center;fillColor=#e1d5e7;strokeColor=#9673a6;" parent="1" vertex="1">
          <mxGeometry x="280" y="200" width="90" height="40" as="geometry" />
        </mxCell>
        <mxCell id="ufnq5izGLjDM3eV9SagC-91" style="edgeStyle=orthogonalEdgeStyle;rounded=0;orthogonalLoop=1;jettySize=auto;html=1;exitX=0.5;exitY=1;exitDx=0;exitDy=0;endArrow=classic;endFill=1;" parent="1" source="ufnq5izGLjDM3eV9SagC-3" target="ufnq5izGLjDM3eV9SagC-67" edge="1">
          <mxGeometry relative="1" as="geometry" />
        </mxCell>
        <mxCell id="ufnq5izGLjDM3eV9SagC-3" value="Comprar" style="shape=rhombus;double=1;perimeter=rhombusPerimeter;whiteSpace=wrap;html=1;align=center;" parent="1" vertex="1">
          <mxGeometry x="280" y="280" width="90" height="40" as="geometry" />
        </mxCell>
        <mxCell id="ufnq5izGLjDM3eV9SagC-12" style="rounded=0;orthogonalLoop=1;jettySize=auto;html=1;endArrow=none;endFill=0;" parent="1" source="ufnq5izGLjDM3eV9SagC-5" target="ufnq5izGLjDM3eV9SagC-1" edge="1">
          <mxGeometry relative="1" as="geometry" />
        </mxCell>
        <mxCell id="ufnq5izGLjDM3eV9SagC-5" value="idProducto" style="ellipse;whiteSpace=wrap;html=1;align=center;fontStyle=4" parent="1" vertex="1">
          <mxGeometry x="30" y="150" width="70" height="30" as="geometry" />
        </mxCell>
        <mxCell id="ufnq5izGLjDM3eV9SagC-11" style="rounded=0;orthogonalLoop=1;jettySize=auto;html=1;endArrow=none;endFill=0;" parent="1" source="ufnq5izGLjDM3eV9SagC-6" target="ufnq5izGLjDM3eV9SagC-1" edge="1">
          <mxGeometry relative="1" as="geometry">
            <Array as="points">
              <mxPoint x="100" y="210" />
            </Array>
          </mxGeometry>
        </mxCell>
        <mxCell id="ufnq5izGLjDM3eV9SagC-6" value="Status" style="ellipse;whiteSpace=wrap;html=1;align=center;" parent="1" vertex="1">
          <mxGeometry x="20" y="190" width="70" height="30" as="geometry" />
        </mxCell>
        <mxCell id="ufnq5izGLjDM3eV9SagC-7" value="Nombre" style="ellipse;whiteSpace=wrap;html=1;align=center;" parent="1" vertex="1">
          <mxGeometry x="120" y="130" width="70" height="30" as="geometry" />
        </mxCell>
        <mxCell id="ufnq5izGLjDM3eV9SagC-23" style="rounded=0;orthogonalLoop=1;jettySize=auto;html=1;endArrow=none;endFill=0;" parent="1" source="ufnq5izGLjDM3eV9SagC-8" target="ufnq5izGLjDM3eV9SagC-1" edge="1">
          <mxGeometry relative="1" as="geometry" />
        </mxCell>
        <mxCell id="ufnq5izGLjDM3eV9SagC-8" value="Descripcion" style="ellipse;whiteSpace=wrap;html=1;align=center;" parent="1" vertex="1">
          <mxGeometry x="60" y="100" width="70" height="30" as="geometry" />
        </mxCell>
        <mxCell id="ufnq5izGLjDM3eV9SagC-22" style="rounded=0;orthogonalLoop=1;jettySize=auto;html=1;endArrow=none;endFill=0;" parent="1" source="ufnq5izGLjDM3eV9SagC-9" target="ufnq5izGLjDM3eV9SagC-1" edge="1">
          <mxGeometry relative="1" as="geometry" />
        </mxCell>
        <mxCell id="ufnq5izGLjDM3eV9SagC-9" value="Precio" style="ellipse;whiteSpace=wrap;html=1;align=center;" parent="1" vertex="1">
          <mxGeometry x="170" y="100" width="70" height="30" as="geometry" />
        </mxCell>
        <mxCell id="ufnq5izGLjDM3eV9SagC-20" style="edgeStyle=orthogonalEdgeStyle;rounded=0;orthogonalLoop=1;jettySize=auto;html=1;exitX=0.5;exitY=1;exitDx=0;exitDy=0;strokeColor=none;" parent="1" source="ufnq5izGLjDM3eV9SagC-10" target="ufnq5izGLjDM3eV9SagC-1" edge="1">
          <mxGeometry relative="1" as="geometry" />
        </mxCell>
        <mxCell id="ufnq5izGLjDM3eV9SagC-21" style="rounded=0;orthogonalLoop=1;jettySize=auto;html=1;strokeColor=default;endArrow=none;endFill=0;" parent="1" source="ufnq5izGLjDM3eV9SagC-10" target="ufnq5izGLjDM3eV9SagC-1" edge="1">
          <mxGeometry relative="1" as="geometry" />
        </mxCell>
        <mxCell id="ufnq5izGLjDM3eV9SagC-10" value="TamaÃ±o" style="ellipse;whiteSpace=wrap;html=1;align=center;" parent="1" vertex="1">
          <mxGeometry x="190" y="150" width="70" height="30" as="geometry" />
        </mxCell>
        <mxCell id="ufnq5izGLjDM3eV9SagC-90" style="edgeStyle=orthogonalEdgeStyle;rounded=0;orthogonalLoop=1;jettySize=auto;html=1;exitX=0.5;exitY=1;exitDx=0;exitDy=0;endArrow=none;endFill=0;" parent="1" source="ufnq5izGLjDM3eV9SagC-112" target="ufnq5izGLjDM3eV9SagC-41" edge="1">
          <mxGeometry relative="1" as="geometry" />
        </mxCell>
        <mxCell id="ufnq5izGLjDM3eV9SagC-94" style="rounded=0;orthogonalLoop=1;jettySize=auto;html=1;exitX=1;exitY=0.5;exitDx=0;exitDy=0;endArrow=none;endFill=0;" parent="1" source="ufnq5izGLjDM3eV9SagC-123" target="ufnq5izGLjDM3eV9SagC-42" edge="1">
          <mxGeometry relative="1" as="geometry" />
        </mxCell>
        <mxCell id="ufnq5izGLjDM3eV9SagC-25" value="Usuario" style="whiteSpace=wrap;html=1;align=center;fillColor=#dae8fc;strokeColor=#6c8ebf;" parent="1" vertex="1">
          <mxGeometry x="440" y="200" width="100" height="40" as="geometry" />
        </mxCell>
        <mxCell id="ufnq5izGLjDM3eV9SagC-27" style="rounded=0;orthogonalLoop=1;jettySize=auto;html=1;endArrow=none;endFill=0;strokeColor=default;" parent="1" source="ufnq5izGLjDM3eV9SagC-25" target="ufnq5izGLjDM3eV9SagC-32" edge="1">
          <mxGeometry relative="1" as="geometry">
            <mxPoint x="486" y="180" as="sourcePoint" />
          </mxGeometry>
        </mxCell>
        <mxCell id="ufnq5izGLjDM3eV9SagC-28" style="rounded=0;orthogonalLoop=1;jettySize=auto;html=1;endArrow=none;endFill=0;" parent="1" source="ufnq5izGLjDM3eV9SagC-29" target="ufnq5izGLjDM3eV9SagC-25" edge="1">
          <mxGeometry relative="1" as="geometry">
            <mxPoint x="452" y="180" as="targetPoint" />
          </mxGeometry>
        </mxCell>
        <mxCell id="ufnq5izGLjDM3eV9SagC-29" value="&lt;u&gt;Correo&lt;/u&gt;" style="ellipse;whiteSpace=wrap;html=1;align=center;" parent="1" vertex="1">
          <mxGeometry x="350" y="130" width="70" height="30" as="geometry" />
        </mxCell>
        <mxCell id="ufnq5izGLjDM3eV9SagC-81" style="rounded=0;orthogonalLoop=1;jettySize=auto;html=1;endArrow=none;endFill=0;" parent="1" source="ufnq5izGLjDM3eV9SagC-31" target="ufnq5izGLjDM3eV9SagC-25" edge="1">
          <mxGeometry relative="1" as="geometry" />
        </mxCell>
        <mxCell id="ufnq5izGLjDM3eV9SagC-31" value="Status" style="ellipse;whiteSpace=wrap;html=1;align=center;" parent="1" vertex="1">
          <mxGeometry x="340" y="170" width="70" height="30" as="geometry" />
        </mxCell>
        <mxCell id="ufnq5izGLjDM3eV9SagC-32" value="Nombre" style="ellipse;whiteSpace=wrap;html=1;align=center;" parent="1" vertex="1">
          <mxGeometry x="440" y="130" width="70" height="30" as="geometry" />
        </mxCell>
        <mxCell id="ufnq5izGLjDM3eV9SagC-33" style="rounded=0;orthogonalLoop=1;jettySize=auto;html=1;endArrow=none;endFill=0;" parent="1" source="ufnq5izGLjDM3eV9SagC-34" target="ufnq5izGLjDM3eV9SagC-25" edge="1">
          <mxGeometry relative="1" as="geometry">
            <mxPoint x="476" y="180" as="targetPoint" />
          </mxGeometry>
        </mxCell>
        <mxCell id="ufnq5izGLjDM3eV9SagC-34" value="FechaNacim" style="ellipse;whiteSpace=wrap;html=1;align=center;" parent="1" vertex="1">
          <mxGeometry x="360" y="85" width="70" height="30" as="geometry" />
        </mxCell>
        <mxCell id="ufnq5izGLjDM3eV9SagC-35" style="rounded=0;orthogonalLoop=1;jettySize=auto;html=1;endArrow=none;endFill=0;" parent="1" source="ufnq5izGLjDM3eV9SagC-36" target="ufnq5izGLjDM3eV9SagC-32" edge="1">
          <mxGeometry relative="1" as="geometry">
            <mxPoint x="497" y="180" as="targetPoint" />
          </mxGeometry>
        </mxCell>
        <mxCell id="ufnq5izGLjDM3eV9SagC-36" value="Apellido M" style="ellipse;whiteSpace=wrap;html=1;align=center;" parent="1" vertex="1">
          <mxGeometry x="510" y="85" width="70" height="30" as="geometry" />
        </mxCell>
        <mxCell id="ufnq5izGLjDM3eV9SagC-37" style="rounded=0;orthogonalLoop=1;jettySize=auto;html=1;strokeColor=default;endArrow=none;endFill=0;" parent="1" source="ufnq5izGLjDM3eV9SagC-38" target="ufnq5izGLjDM3eV9SagC-25" edge="1">
          <mxGeometry relative="1" as="geometry">
            <mxPoint x="510" y="180" as="targetPoint" />
          </mxGeometry>
        </mxCell>
        <mxCell id="ufnq5izGLjDM3eV9SagC-38" value="ContraseÃ±a" style="ellipse;whiteSpace=wrap;html=1;align=center;" parent="1" vertex="1">
          <mxGeometry x="520" y="125" width="70" height="30" as="geometry" />
        </mxCell>
        <mxCell id="ufnq5izGLjDM3eV9SagC-92" style="rounded=0;orthogonalLoop=1;jettySize=auto;html=1;endArrow=none;endFill=0;" parent="1" source="K6hZ0VcQwFhXVgysdmx0-1" target="ufnq5izGLjDM3eV9SagC-40" edge="1">
          <mxGeometry relative="1" as="geometry">
            <mxPoint x="170" y="320" as="sourcePoint" />
          </mxGeometry>
        </mxCell>
        <mxCell id="ufnq5izGLjDM3eV9SagC-93" style="edgeStyle=orthogonalEdgeStyle;rounded=0;orthogonalLoop=1;jettySize=auto;html=1;exitX=0.5;exitY=0;exitDx=0;exitDy=0;endArrow=none;endFill=0;shape=link;" parent="1" target="ufnq5izGLjDM3eV9SagC-1" edge="1">
          <mxGeometry relative="1" as="geometry">
            <mxPoint x="170" y="280" as="sourcePoint" />
            <Array as="points">
              <mxPoint x="170" y="270" />
              <mxPoint x="170" y="270" />
            </Array>
          </mxGeometry>
        </mxCell>
        <mxCell id="ufnq5izGLjDM3eV9SagC-40" value="CategorÃ­a" style="whiteSpace=wrap;html=1;align=center;strokeColor=#6c8ebf;fillColor=#dae8fc;" parent="1" vertex="1">
          <mxGeometry x="120" y="360" width="100" height="40" as="geometry" />
        </mxCell>
        <mxCell id="ufnq5izGLjDM3eV9SagC-41" value="Insumo" style="whiteSpace=wrap;html=1;align=center;fillColor=#dae8fc;strokeColor=#6c8ebf;" parent="1" vertex="1">
          <mxGeometry x="440" y="360" width="100" height="40" as="geometry" />
        </mxCell>
        <mxCell id="ufnq5izGLjDM3eV9SagC-42" value="Sucursal" style="whiteSpace=wrap;html=1;align=center;fillColor=#dae8fc;strokeColor=#6c8ebf;" parent="1" vertex="1">
          <mxGeometry x="730" y="200" width="100" height="40" as="geometry" />
        </mxCell>
        <mxCell id="ufnq5izGLjDM3eV9SagC-43" style="rounded=0;orthogonalLoop=1;jettySize=auto;html=1;endArrow=none;endFill=0;strokeColor=default;" parent="1" source="ufnq5izGLjDM3eV9SagC-50" target="ufnq5izGLjDM3eV9SagC-48" edge="1">
          <mxGeometry relative="1" as="geometry">
            <mxPoint x="716" y="50" as="sourcePoint" />
          </mxGeometry>
        </mxCell>
        <mxCell id="ufnq5izGLjDM3eV9SagC-44" style="rounded=0;orthogonalLoop=1;jettySize=auto;html=1;endArrow=none;endFill=0;" parent="1" source="ufnq5izGLjDM3eV9SagC-45" target="ufnq5izGLjDM3eV9SagC-42" edge="1">
          <mxGeometry relative="1" as="geometry">
            <mxPoint x="802" y="165" as="targetPoint" />
          </mxGeometry>
        </mxCell>
        <mxCell id="ufnq5izGLjDM3eV9SagC-45" value="&lt;u&gt;idSucursal&lt;/u&gt;" style="ellipse;whiteSpace=wrap;html=1;align=center;" parent="1" vertex="1">
          <mxGeometry x="660" y="115" width="70" height="30" as="geometry" />
        </mxCell>
        <mxCell id="ufnq5izGLjDM3eV9SagC-95" style="rounded=0;orthogonalLoop=1;jettySize=auto;html=1;endArrow=none;endFill=0;" parent="1" source="ufnq5izGLjDM3eV9SagC-47" target="ufnq5izGLjDM3eV9SagC-42" edge="1">
          <mxGeometry relative="1" as="geometry" />
        </mxCell>
        <mxCell id="ufnq5izGLjDM3eV9SagC-47" value="Nombre" style="ellipse;whiteSpace=wrap;html=1;align=center;" parent="1" vertex="1">
          <mxGeometry x="650" y="160" width="70" height="30" as="geometry" />
        </mxCell>
        <mxCell id="ufnq5izGLjDM3eV9SagC-48" value="Ciudad" style="ellipse;whiteSpace=wrap;html=1;align=center;" parent="1" vertex="1">
          <mxGeometry x="620" y="40" width="70" height="30" as="geometry" />
        </mxCell>
        <mxCell id="ufnq5izGLjDM3eV9SagC-49" style="rounded=0;orthogonalLoop=1;jettySize=auto;html=1;endArrow=none;endFill=0;" parent="1" source="ufnq5izGLjDM3eV9SagC-50" target="ufnq5izGLjDM3eV9SagC-42" edge="1">
          <mxGeometry relative="1" as="geometry">
            <mxPoint x="826" y="165" as="targetPoint" />
          </mxGeometry>
        </mxCell>
        <mxCell id="ufnq5izGLjDM3eV9SagC-50" value="DirecciÃ³n" style="ellipse;whiteSpace=wrap;html=1;align=center;" parent="1" vertex="1">
          <mxGeometry x="690" y="70" width="70" height="30" as="geometry" />
        </mxCell>
        <mxCell id="ufnq5izGLjDM3eV9SagC-51" style="rounded=0;orthogonalLoop=1;jettySize=auto;html=1;endArrow=none;endFill=0;" parent="1" source="ufnq5izGLjDM3eV9SagC-52" target="ufnq5izGLjDM3eV9SagC-50" edge="1">
          <mxGeometry relative="1" as="geometry">
            <mxPoint x="727" y="50" as="targetPoint" />
          </mxGeometry>
        </mxCell>
        <mxCell id="ufnq5izGLjDM3eV9SagC-52" value="Municipio" style="ellipse;whiteSpace=wrap;html=1;align=center;" parent="1" vertex="1">
          <mxGeometry x="680" y="20" width="70" height="30" as="geometry" />
        </mxCell>
        <mxCell id="ufnq5izGLjDM3eV9SagC-53" style="rounded=0;orthogonalLoop=1;jettySize=auto;html=1;strokeColor=default;endArrow=none;endFill=0;entryX=0.731;entryY=0.087;entryDx=0;entryDy=0;entryPerimeter=0;" parent="1" source="ufnq5izGLjDM3eV9SagC-54" target="ufnq5izGLjDM3eV9SagC-50" edge="1">
          <mxGeometry relative="1" as="geometry">
            <mxPoint x="740" y="50" as="targetPoint" />
          </mxGeometry>
        </mxCell>
        <mxCell id="ufnq5izGLjDM3eV9SagC-54" value="Calle" style="ellipse;whiteSpace=wrap;html=1;align=center;" parent="1" vertex="1">
          <mxGeometry x="740" width="70" height="30" as="geometry" />
        </mxCell>
        <mxCell id="ufnq5izGLjDM3eV9SagC-55" style="rounded=0;orthogonalLoop=1;jettySize=auto;html=1;endArrow=none;endFill=0;strokeColor=default;" parent="1" source="ufnq5izGLjDM3eV9SagC-41" target="ufnq5izGLjDM3eV9SagC-60" edge="1">
          <mxGeometry relative="1" as="geometry">
            <mxPoint x="656" y="520" as="sourcePoint" />
          </mxGeometry>
        </mxCell>
        <mxCell id="ufnq5izGLjDM3eV9SagC-56" style="rounded=0;orthogonalLoop=1;jettySize=auto;html=1;endArrow=none;endFill=0;" parent="1" source="ufnq5izGLjDM3eV9SagC-57" target="ufnq5izGLjDM3eV9SagC-41" edge="1">
          <mxGeometry relative="1" as="geometry">
            <mxPoint x="622" y="520" as="targetPoint" />
          </mxGeometry>
        </mxCell>
        <mxCell id="ufnq5izGLjDM3eV9SagC-57" value="gtin" style="ellipse;whiteSpace=wrap;html=1;align=center;fontStyle=4" parent="1" vertex="1">
          <mxGeometry x="420" y="430" width="70" height="30" as="geometry" />
        </mxCell>
        <mxCell id="ufnq5izGLjDM3eV9SagC-114" style="rounded=0;orthogonalLoop=1;jettySize=auto;html=1;exitX=0;exitY=1;exitDx=0;exitDy=0;endArrow=none;endFill=0;" parent="1" source="ufnq5izGLjDM3eV9SagC-59" target="ufnq5izGLjDM3eV9SagC-112" edge="1">
          <mxGeometry relative="1" as="geometry" />
        </mxCell>
        <mxCell id="ufnq5izGLjDM3eV9SagC-59" value="Stock" style="ellipse;whiteSpace=wrap;html=1;align=center;" parent="1" vertex="1">
          <mxGeometry x="540" y="250" width="70" height="30" as="geometry" />
        </mxCell>
        <mxCell id="ufnq5izGLjDM3eV9SagC-60" value="Nombre" style="ellipse;whiteSpace=wrap;html=1;align=center;" parent="1" vertex="1">
          <mxGeometry x="510" y="420" width="70" height="30" as="geometry" />
        </mxCell>
        <mxCell id="ufnq5izGLjDM3eV9SagC-61" style="rounded=0;orthogonalLoop=1;jettySize=auto;html=1;endArrow=none;endFill=0;" parent="1" source="ufnq5izGLjDM3eV9SagC-62" target="ufnq5izGLjDM3eV9SagC-41" edge="1">
          <mxGeometry relative="1" as="geometry">
            <mxPoint x="646" y="520" as="targetPoint" />
          </mxGeometry>
        </mxCell>
        <mxCell id="ufnq5izGLjDM3eV9SagC-62" value="Descripcion" style="ellipse;whiteSpace=wrap;html=1;align=center;" parent="1" vertex="1">
          <mxGeometry x="480" y="470" width="70" height="30" as="geometry" />
        </mxCell>
        <mxCell id="ufnq5izGLjDM3eV9SagC-63" style="rounded=0;orthogonalLoop=1;jettySize=auto;html=1;endArrow=none;endFill=0;" parent="1" source="ufnq5izGLjDM3eV9SagC-64" target="ufnq5izGLjDM3eV9SagC-41" edge="1">
          <mxGeometry relative="1" as="geometry">
            <mxPoint x="667" y="520" as="targetPoint" />
          </mxGeometry>
        </mxCell>
        <mxCell id="ufnq5izGLjDM3eV9SagC-64" value="Precio" style="ellipse;whiteSpace=wrap;html=1;align=center;" parent="1" vertex="1">
          <mxGeometry x="580" y="410" width="70" height="30" as="geometry" />
        </mxCell>
        <mxCell id="ufnq5izGLjDM3eV9SagC-65" style="rounded=0;orthogonalLoop=1;jettySize=auto;html=1;strokeColor=default;endArrow=none;endFill=0;" parent="1" source="ufnq5izGLjDM3eV9SagC-66" target="ufnq5izGLjDM3eV9SagC-40" edge="1">
          <mxGeometry relative="1" as="geometry">
            <mxPoint x="10" y="420" as="targetPoint" />
          </mxGeometry>
        </mxCell>
        <mxCell id="ufnq5izGLjDM3eV9SagC-66" value="idCategoria" style="ellipse;whiteSpace=wrap;html=1;align=center;fontStyle=4" parent="1" vertex="1">
          <mxGeometry x="20" y="380" width="70" height="30" as="geometry" />
        </mxCell>
        <mxCell id="ufnq5izGLjDM3eV9SagC-67" value="Cliente" style="whiteSpace=wrap;html=1;align=center;fillColor=#dae8fc;strokeColor=#6c8ebf;" parent="1" vertex="1">
          <mxGeometry x="275" y="360" width="100" height="40" as="geometry" />
        </mxCell>
        <mxCell id="ufnq5izGLjDM3eV9SagC-68" style="rounded=0;orthogonalLoop=1;jettySize=auto;html=1;endArrow=none;endFill=0;strokeColor=default;" parent="1" source="ufnq5izGLjDM3eV9SagC-40" target="ufnq5izGLjDM3eV9SagC-73" edge="1">
          <mxGeometry relative="1" as="geometry">
            <mxPoint x="276" y="530" as="sourcePoint" />
          </mxGeometry>
        </mxCell>
        <mxCell id="ufnq5izGLjDM3eV9SagC-69" style="rounded=0;orthogonalLoop=1;jettySize=auto;html=1;endArrow=none;endFill=0;" parent="1" source="ufnq5izGLjDM3eV9SagC-70" target="ufnq5izGLjDM3eV9SagC-67" edge="1">
          <mxGeometry relative="1" as="geometry">
            <mxPoint x="242" y="530" as="targetPoint" />
          </mxGeometry>
        </mxCell>
        <mxCell id="ufnq5izGLjDM3eV9SagC-70" value="idCliente" style="ellipse;whiteSpace=wrap;html=1;align=center;fontStyle=4" parent="1" vertex="1">
          <mxGeometry x="344" y="430" width="70" height="30" as="geometry" />
        </mxCell>
        <mxCell id="ufnq5izGLjDM3eV9SagC-73" value="Nombre" style="ellipse;whiteSpace=wrap;html=1;align=center;" parent="1" vertex="1">
          <mxGeometry x="70" y="420" width="70" height="30" as="geometry" />
        </mxCell>
        <mxCell id="ufnq5izGLjDM3eV9SagC-74" style="rounded=0;orthogonalLoop=1;jettySize=auto;html=1;endArrow=none;endFill=0;" parent="1" source="ufnq5izGLjDM3eV9SagC-75" target="ufnq5izGLjDM3eV9SagC-40" edge="1">
          <mxGeometry relative="1" as="geometry">
            <mxPoint x="266" y="530" as="targetPoint" />
          </mxGeometry>
        </mxCell>
        <mxCell id="ufnq5izGLjDM3eV9SagC-75" value="Descripcion" style="ellipse;whiteSpace=wrap;html=1;align=center;" parent="1" vertex="1">
          <mxGeometry x="130" y="450" width="70" height="30" as="geometry" />
        </mxCell>
        <mxCell id="ufnq5izGLjDM3eV9SagC-76" style="rounded=0;orthogonalLoop=1;jettySize=auto;html=1;endArrow=none;endFill=0;" parent="1" source="ufnq5izGLjDM3eV9SagC-77" target="ufnq5izGLjDM3eV9SagC-67" edge="1">
          <mxGeometry relative="1" as="geometry">
            <mxPoint x="287" y="530" as="targetPoint" />
          </mxGeometry>
        </mxCell>
        <mxCell id="ufnq5izGLjDM3eV9SagC-77" value="Pagado" style="ellipse;whiteSpace=wrap;html=1;align=center;" parent="1" vertex="1">
          <mxGeometry x="290" y="470" width="70" height="30" as="geometry" />
        </mxCell>
        <mxCell id="ufnq5izGLjDM3eV9SagC-78" style="rounded=0;orthogonalLoop=1;jettySize=auto;html=1;strokeColor=default;endArrow=none;endFill=0;" parent="1" source="ufnq5izGLjDM3eV9SagC-79" target="ufnq5izGLjDM3eV9SagC-67" edge="1">
          <mxGeometry relative="1" as="geometry">
            <mxPoint x="300" y="530" as="targetPoint" />
          </mxGeometry>
        </mxCell>
        <mxCell id="ufnq5izGLjDM3eV9SagC-79" value="Nombre" style="ellipse;whiteSpace=wrap;html=1;align=center;" parent="1" vertex="1">
          <mxGeometry x="235" y="430" width="70" height="30" as="geometry" />
        </mxCell>
        <mxCell id="ufnq5izGLjDM3eV9SagC-82" style="rounded=0;orthogonalLoop=1;jettySize=auto;html=1;endArrow=none;endFill=0;" parent="1" source="ufnq5izGLjDM3eV9SagC-83" target="ufnq5izGLjDM3eV9SagC-32" edge="1">
          <mxGeometry relative="1" as="geometry">
            <mxPoint x="440" y="105.5" as="targetPoint" />
          </mxGeometry>
        </mxCell>
        <mxCell id="ufnq5izGLjDM3eV9SagC-83" value="Nombres" style="ellipse;whiteSpace=wrap;html=1;align=center;" parent="1" vertex="1">
          <mxGeometry x="430" y="70" width="70" height="30" as="geometry" />
        </mxCell>
        <mxCell id="ufnq5izGLjDM3eV9SagC-84" style="rounded=0;orthogonalLoop=1;jettySize=auto;html=1;endArrow=none;endFill=0;" parent="1" source="ufnq5izGLjDM3eV9SagC-85" target="ufnq5izGLjDM3eV9SagC-32" edge="1">
          <mxGeometry relative="1" as="geometry">
            <mxPoint x="479" y="105.5" as="targetPoint" />
          </mxGeometry>
        </mxCell>
        <mxCell id="ufnq5izGLjDM3eV9SagC-85" value="Apellido P" style="ellipse;whiteSpace=wrap;html=1;align=center;" parent="1" vertex="1">
          <mxGeometry x="490" y="40" width="70" height="30" as="geometry" />
        </mxCell>
        <mxCell id="ufnq5izGLjDM3eV9SagC-86" style="rounded=0;orthogonalLoop=1;jettySize=auto;html=1;endArrow=none;endFill=0;" parent="1" source="ufnq5izGLjDM3eV9SagC-87" target="ufnq5izGLjDM3eV9SagC-25" edge="1">
          <mxGeometry relative="1" as="geometry">
            <mxPoint x="550" y="211" as="targetPoint" />
          </mxGeometry>
        </mxCell>
        <mxCell id="ufnq5izGLjDM3eV9SagC-87" value="TipoUsuario" style="ellipse;whiteSpace=wrap;html=1;align=center;" parent="1" vertex="1">
          <mxGeometry x="550" y="160" width="70" height="30" as="geometry" />
        </mxCell>
        <mxCell id="ufnq5izGLjDM3eV9SagC-96" style="rounded=0;orthogonalLoop=1;jettySize=auto;html=1;endArrow=none;endFill=0;" parent="1" source="ufnq5izGLjDM3eV9SagC-97" target="ufnq5izGLjDM3eV9SagC-50" edge="1">
          <mxGeometry relative="1" as="geometry">
            <mxPoint x="810" y="80.5" as="targetPoint" />
          </mxGeometry>
        </mxCell>
        <mxCell id="ufnq5izGLjDM3eV9SagC-97" value="NÃºmero" style="ellipse;whiteSpace=wrap;html=1;align=center;" parent="1" vertex="1">
          <mxGeometry x="770" y="30" width="70" height="30" as="geometry" />
        </mxCell>
        <mxCell id="ufnq5izGLjDM3eV9SagC-98" style="rounded=0;orthogonalLoop=1;jettySize=auto;html=1;endArrow=none;endFill=0;" parent="1" source="ufnq5izGLjDM3eV9SagC-99" target="ufnq5izGLjDM3eV9SagC-50" edge="1">
          <mxGeometry relative="1" as="geometry">
            <mxPoint x="780" y="121" as="targetPoint" />
          </mxGeometry>
        </mxCell>
        <mxCell id="ufnq5izGLjDM3eV9SagC-99" value="Colonia" style="ellipse;whiteSpace=wrap;html=1;align=center;" parent="1" vertex="1">
          <mxGeometry x="781" y="70" width="70" height="30" as="geometry" />
        </mxCell>
        <mxCell id="ufnq5izGLjDM3eV9SagC-100" style="rounded=0;orthogonalLoop=1;jettySize=auto;html=1;endArrow=none;endFill=0;" parent="1" source="ufnq5izGLjDM3eV9SagC-101" target="ufnq5izGLjDM3eV9SagC-42" edge="1">
          <mxGeometry relative="1" as="geometry">
            <mxPoint x="750" y="160" as="targetPoint" />
          </mxGeometry>
        </mxCell>
        <mxCell id="ufnq5izGLjDM3eV9SagC-101" value="Inaguracion" style="ellipse;whiteSpace=wrap;html=1;align=center;" parent="1" vertex="1">
          <mxGeometry x="750" y="109" width="70" height="30" as="geometry" />
        </mxCell>
        <mxCell id="ufnq5izGLjDM3eV9SagC-102" style="rounded=0;orthogonalLoop=1;jettySize=auto;html=1;endArrow=none;endFill=0;" parent="1" source="ufnq5izGLjDM3eV9SagC-103" target="ufnq5izGLjDM3eV9SagC-50" edge="1">
          <mxGeometry relative="1" as="geometry">
            <mxPoint x="600" y="136" as="targetPoint" />
          </mxGeometry>
        </mxCell>
        <mxCell id="ufnq5izGLjDM3eV9SagC-103" value="Precio" style="ellipse;whiteSpace=wrap;html=1;align=center;" parent="1" vertex="1">
          <mxGeometry x="601" y="85" width="70" height="30" as="geometry" />
        </mxCell>
        <mxCell id="ufnq5izGLjDM3eV9SagC-105" style="rounded=0;orthogonalLoop=1;jettySize=auto;html=1;endArrow=none;endFill=0;" parent="1" source="ufnq5izGLjDM3eV9SagC-106" target="ufnq5izGLjDM3eV9SagC-42" edge="1">
          <mxGeometry relative="1" as="geometry">
            <mxPoint x="810" y="196" as="targetPoint" />
          </mxGeometry>
        </mxCell>
        <mxCell id="ufnq5izGLjDM3eV9SagC-106" value="Capital" style="ellipse;whiteSpace=wrap;html=1;align=center;dashed=1;" parent="1" vertex="1">
          <mxGeometry x="800" y="145" width="70" height="30" as="geometry" />
        </mxCell>
        <mxCell id="ufnq5izGLjDM3eV9SagC-107" style="rounded=0;orthogonalLoop=1;jettySize=auto;html=1;endArrow=none;endFill=0;" parent="1" source="ufnq5izGLjDM3eV9SagC-108" target="ufnq5izGLjDM3eV9SagC-42" edge="1">
          <mxGeometry relative="1" as="geometry">
            <mxPoint x="870" y="201" as="targetPoint" />
          </mxGeometry>
        </mxCell>
        <mxCell id="ufnq5izGLjDM3eV9SagC-108" value="Ganancias" style="ellipse;whiteSpace=wrap;html=1;align=center;dashed=1;" parent="1" vertex="1">
          <mxGeometry x="881" y="155" width="70" height="30" as="geometry" />
        </mxCell>
        <mxCell id="ufnq5izGLjDM3eV9SagC-109" style="rounded=0;orthogonalLoop=1;jettySize=auto;html=1;endArrow=none;endFill=0;" parent="1" source="ufnq5izGLjDM3eV9SagC-110" target="ufnq5izGLjDM3eV9SagC-42" edge="1">
          <mxGeometry relative="1" as="geometry">
            <mxPoint x="836" y="210" as="targetPoint" />
          </mxGeometry>
        </mxCell>
        <mxCell id="ufnq5izGLjDM3eV9SagC-110" value="PÃ©rdidas" style="ellipse;whiteSpace=wrap;html=1;align=center;dashed=1;" parent="1" vertex="1">
          <mxGeometry x="881" y="200" width="70" height="30" as="geometry" />
        </mxCell>
        <mxCell id="ufnq5izGLjDM3eV9SagC-111" value="" style="edgeStyle=orthogonalEdgeStyle;rounded=0;orthogonalLoop=1;jettySize=auto;html=1;exitX=0.5;exitY=1;exitDx=0;exitDy=0;endArrow=none;endFill=0;startArrow=classic;startFill=1;" parent="1" source="ufnq5izGLjDM3eV9SagC-25" target="ufnq5izGLjDM3eV9SagC-112" edge="1">
          <mxGeometry relative="1" as="geometry">
            <mxPoint x="490" y="240" as="sourcePoint" />
            <mxPoint x="490" y="360" as="targetPoint" />
          </mxGeometry>
        </mxCell>
        <mxCell id="ufnq5izGLjDM3eV9SagC-112" value="Adquirir" style="shape=rhombus;perimeter=rhombusPerimeter;whiteSpace=wrap;html=1;align=center;fillColor=#ffe6cc;strokeColor=#d79b00;" parent="1" vertex="1">
          <mxGeometry x="450" y="280" width="80" height="40" as="geometry" />
        </mxCell>
        <mxCell id="ufnq5izGLjDM3eV9SagC-116" style="rounded=0;orthogonalLoop=1;jettySize=auto;html=1;endArrow=none;endFill=0;" parent="1" source="ufnq5izGLjDM3eV9SagC-117" target="ufnq5izGLjDM3eV9SagC-3" edge="1">
          <mxGeometry relative="1" as="geometry">
            <mxPoint x="307" y="270" as="targetPoint" />
          </mxGeometry>
        </mxCell>
        <mxCell id="ufnq5izGLjDM3eV9SagC-117" value="Fecha" style="ellipse;whiteSpace=wrap;html=1;align=center;fontStyle=0" parent="1" vertex="1">
          <mxGeometry x="360" y="260" width="70" height="30" as="geometry" />
        </mxCell>
        <mxCell id="ufnq5izGLjDM3eV9SagC-118" style="rounded=0;orthogonalLoop=1;jettySize=auto;html=1;strokeColor=default;endArrow=none;endFill=0;" parent="1" source="ufnq5izGLjDM3eV9SagC-119" target="ufnq5izGLjDM3eV9SagC-3" edge="1">
          <mxGeometry relative="1" as="geometry">
            <mxPoint x="273" y="270" as="targetPoint" />
          </mxGeometry>
        </mxCell>
        <mxCell id="ufnq5izGLjDM3eV9SagC-119" value="Total" style="ellipse;whiteSpace=wrap;html=1;align=center;dashed=1;" parent="1" vertex="1">
          <mxGeometry x="360" y="310" width="70" height="30" as="geometry" />
        </mxCell>
        <mxCell id="ufnq5izGLjDM3eV9SagC-122" value="" style="rounded=0;orthogonalLoop=1;jettySize=auto;html=1;exitX=1;exitY=0.5;exitDx=0;exitDy=0;endArrow=none;endFill=0;shape=link;" parent="1" source="ufnq5izGLjDM3eV9SagC-25" target="ufnq5izGLjDM3eV9SagC-123" edge="1">
          <mxGeometry relative="1" as="geometry">
            <mxPoint x="540" y="220" as="sourcePoint" />
            <mxPoint x="730" y="220" as="targetPoint" />
          </mxGeometry>
        </mxCell>
        <mxCell id="ufnq5izGLjDM3eV9SagC-123" value="Registrar" style="shape=rhombus;perimeter=rhombusPerimeter;whiteSpace=wrap;html=1;align=center;fillColor=#ffe6cc;strokeColor=#d79b00;" parent="1" vertex="1">
          <mxGeometry x="596" y="200" width="80" height="40" as="geometry" />
        </mxCell>
        <mxCell id="K6hZ0VcQwFhXVgysdmx0-1" value="Pertenecer" style="shape=rhombus;double=1;perimeter=rhombusPerimeter;whiteSpace=wrap;html=1;align=center;" parent="1" vertex="1">
          <mxGeometry x="125" y="280" width="90" height="40" as="geometry" />
        </mxCell>
      </root>
    </mxGraphModel>
  </diagram>
  <diagram id="bzyGKMyO4FWAWSf-Ue3X" name="Modelo Relacional">
    <mxGraphModel dx="1432" dy="887" grid="1" gridSize="10" guides="1" tooltips="1" connect="1" arrows="1" fold="1" page="1" pageScale="1" pageWidth="827" pageHeight="1169" math="0" shadow="0">
      <root>
        <mxCell id="0" />
        <mxCell id="1" parent="0" />
        <mxCell id="rOgcGrfOH9K6YcO0PpOx-134" value="" style="group" vertex="1" connectable="0" parent="1">
          <mxGeometry x="330" y="160" width="980" height="565" as="geometry" />
        </mxCell>
        <mxCell id="rOgcGrfOH9K6YcO0PpOx-1" value="Producto" style="shape=table;startSize=30;container=1;collapsible=1;childLayout=tableLayout;fixedRows=1;rowLines=0;fontStyle=1;align=center;resizeLast=1;html=1;" vertex="1" parent="rOgcGrfOH9K6YcO0PpOx-134">
          <mxGeometry y="115" width="180" height="330" as="geometry" />
        </mxCell>
        <mxCell id="rOgcGrfOH9K6YcO0PpOx-2" value="" style="shape=tableRow;horizontal=0;startSize=0;swimlaneHead=0;swimlaneBody=0;fillColor=none;collapsible=0;dropTarget=0;points=[[0,0.5],[1,0.5]];portConstraint=eastwest;top=0;left=0;right=0;bottom=1;" vertex="1" parent="rOgcGrfOH9K6YcO0PpOx-1">
          <mxGeometry y="30" width="180" height="30" as="geometry" />
        </mxCell>
        <mxCell id="rOgcGrfOH9K6YcO0PpOx-3" value="PK" style="shape=partialRectangle;connectable=0;fillColor=none;top=0;left=0;bottom=0;right=0;fontStyle=1;overflow=hidden;whiteSpace=wrap;html=1;" vertex="1" parent="rOgcGrfOH9K6YcO0PpOx-2">
          <mxGeometry width="30" height="30" as="geometry">
            <mxRectangle width="30" height="30" as="alternateBounds" />
          </mxGeometry>
        </mxCell>
        <mxCell id="rOgcGrfOH9K6YcO0PpOx-4" value="IdProducto" style="shape=partialRectangle;connectable=0;fillColor=none;top=0;left=0;bottom=0;right=0;align=left;spacingLeft=6;fontStyle=5;overflow=hidden;whiteSpace=wrap;html=1;" vertex="1" parent="rOgcGrfOH9K6YcO0PpOx-2">
          <mxGeometry x="30" width="150" height="30" as="geometry">
            <mxRectangle width="150" height="30" as="alternateBounds" />
          </mxGeometry>
        </mxCell>
        <mxCell id="rOgcGrfOH9K6YcO0PpOx-5" value="" style="shape=tableRow;horizontal=0;startSize=0;swimlaneHead=0;swimlaneBody=0;fillColor=none;collapsible=0;dropTarget=0;points=[[0,0.5],[1,0.5]];portConstraint=eastwest;top=0;left=0;right=0;bottom=1;" vertex="1" parent="rOgcGrfOH9K6YcO0PpOx-1">
          <mxGeometry y="60" width="180" height="30" as="geometry" />
        </mxCell>
        <mxCell id="rOgcGrfOH9K6YcO0PpOx-6" value="PK" style="shape=partialRectangle;connectable=0;fillColor=none;top=0;left=0;bottom=0;right=0;fontStyle=1;overflow=hidden;whiteSpace=wrap;html=1;" vertex="1" parent="rOgcGrfOH9K6YcO0PpOx-5">
          <mxGeometry width="30" height="30" as="geometry">
            <mxRectangle width="30" height="30" as="alternateBounds" />
          </mxGeometry>
        </mxCell>
        <mxCell id="rOgcGrfOH9K6YcO0PpOx-7" value="IdCategoria" style="shape=partialRectangle;connectable=0;fillColor=none;top=0;left=0;bottom=0;right=0;align=left;spacingLeft=6;fontStyle=1;overflow=hidden;whiteSpace=wrap;html=1;" vertex="1" parent="rOgcGrfOH9K6YcO0PpOx-5">
          <mxGeometry x="30" width="150" height="30" as="geometry">
            <mxRectangle width="150" height="30" as="alternateBounds" />
          </mxGeometry>
        </mxCell>
        <mxCell id="rOgcGrfOH9K6YcO0PpOx-8" value="" style="shape=tableRow;horizontal=0;startSize=0;swimlaneHead=0;swimlaneBody=0;fillColor=none;collapsible=0;dropTarget=0;points=[[0,0.5],[1,0.5]];portConstraint=eastwest;top=0;left=0;right=0;bottom=1;" vertex="1" parent="rOgcGrfOH9K6YcO0PpOx-1">
          <mxGeometry y="90" width="180" height="30" as="geometry" />
        </mxCell>
        <mxCell id="rOgcGrfOH9K6YcO0PpOx-9" value="PK" style="shape=partialRectangle;connectable=0;fillColor=none;top=0;left=0;bottom=0;right=0;fontStyle=1;overflow=hidden;whiteSpace=wrap;html=1;" vertex="1" parent="rOgcGrfOH9K6YcO0PpOx-8">
          <mxGeometry width="30" height="30" as="geometry">
            <mxRectangle width="30" height="30" as="alternateBounds" />
          </mxGeometry>
        </mxCell>
        <mxCell id="rOgcGrfOH9K6YcO0PpOx-10" value="IdCliente" style="shape=partialRectangle;connectable=0;fillColor=none;top=0;left=0;bottom=0;right=0;align=left;spacingLeft=6;fontStyle=1;overflow=hidden;whiteSpace=wrap;html=1;" vertex="1" parent="rOgcGrfOH9K6YcO0PpOx-8">
          <mxGeometry x="30" width="150" height="30" as="geometry">
            <mxRectangle width="150" height="30" as="alternateBounds" />
          </mxGeometry>
        </mxCell>
        <mxCell id="rOgcGrfOH9K6YcO0PpOx-11" value="" style="shape=tableRow;horizontal=0;startSize=0;swimlaneHead=0;swimlaneBody=0;fillColor=none;collapsible=0;dropTarget=0;points=[[0,0.5],[1,0.5]];portConstraint=eastwest;top=0;left=0;right=0;bottom=1;" vertex="1" parent="rOgcGrfOH9K6YcO0PpOx-1">
          <mxGeometry y="120" width="180" height="30" as="geometry" />
        </mxCell>
        <mxCell id="rOgcGrfOH9K6YcO0PpOx-12" value="PK" style="shape=partialRectangle;connectable=0;fillColor=none;top=0;left=0;bottom=0;right=0;fontStyle=1;overflow=hidden;whiteSpace=wrap;html=1;" vertex="1" parent="rOgcGrfOH9K6YcO0PpOx-11">
          <mxGeometry width="30" height="30" as="geometry">
            <mxRectangle width="30" height="30" as="alternateBounds" />
          </mxGeometry>
        </mxCell>
        <mxCell id="rOgcGrfOH9K6YcO0PpOx-13" value="correo" style="shape=partialRectangle;connectable=0;fillColor=none;top=0;left=0;bottom=0;right=0;align=left;spacingLeft=6;fontStyle=1;overflow=hidden;whiteSpace=wrap;html=1;" vertex="1" parent="rOgcGrfOH9K6YcO0PpOx-11">
          <mxGeometry x="30" width="150" height="30" as="geometry">
            <mxRectangle width="150" height="30" as="alternateBounds" />
          </mxGeometry>
        </mxCell>
        <mxCell id="rOgcGrfOH9K6YcO0PpOx-14" value="" style="shape=tableRow;horizontal=0;startSize=0;swimlaneHead=0;swimlaneBody=0;fillColor=none;collapsible=0;dropTarget=0;points=[[0,0.5],[1,0.5]];portConstraint=eastwest;top=0;left=0;right=0;bottom=0;" vertex="1" parent="rOgcGrfOH9K6YcO0PpOx-1">
          <mxGeometry y="150" width="180" height="30" as="geometry" />
        </mxCell>
        <mxCell id="rOgcGrfOH9K6YcO0PpOx-15" value="" style="shape=partialRectangle;connectable=0;fillColor=none;top=0;left=0;bottom=0;right=0;editable=1;overflow=hidden;whiteSpace=wrap;html=1;" vertex="1" parent="rOgcGrfOH9K6YcO0PpOx-14">
          <mxGeometry width="30" height="30" as="geometry">
            <mxRectangle width="30" height="30" as="alternateBounds" />
          </mxGeometry>
        </mxCell>
        <mxCell id="rOgcGrfOH9K6YcO0PpOx-16" value="Status" style="shape=partialRectangle;connectable=0;fillColor=none;top=0;left=0;bottom=0;right=0;align=left;spacingLeft=6;overflow=hidden;whiteSpace=wrap;html=1;" vertex="1" parent="rOgcGrfOH9K6YcO0PpOx-14">
          <mxGeometry x="30" width="150" height="30" as="geometry">
            <mxRectangle width="150" height="30" as="alternateBounds" />
          </mxGeometry>
        </mxCell>
        <mxCell id="rOgcGrfOH9K6YcO0PpOx-17" value="" style="shape=tableRow;horizontal=0;startSize=0;swimlaneHead=0;swimlaneBody=0;fillColor=none;collapsible=0;dropTarget=0;points=[[0,0.5],[1,0.5]];portConstraint=eastwest;top=0;left=0;right=0;bottom=0;" vertex="1" parent="rOgcGrfOH9K6YcO0PpOx-1">
          <mxGeometry y="180" width="180" height="30" as="geometry" />
        </mxCell>
        <mxCell id="rOgcGrfOH9K6YcO0PpOx-18" value="" style="shape=partialRectangle;connectable=0;fillColor=none;top=0;left=0;bottom=0;right=0;editable=1;overflow=hidden;whiteSpace=wrap;html=1;" vertex="1" parent="rOgcGrfOH9K6YcO0PpOx-17">
          <mxGeometry width="30" height="30" as="geometry">
            <mxRectangle width="30" height="30" as="alternateBounds" />
          </mxGeometry>
        </mxCell>
        <mxCell id="rOgcGrfOH9K6YcO0PpOx-19" value="nombre" style="shape=partialRectangle;connectable=0;fillColor=none;top=0;left=0;bottom=0;right=0;align=left;spacingLeft=6;overflow=hidden;whiteSpace=wrap;html=1;" vertex="1" parent="rOgcGrfOH9K6YcO0PpOx-17">
          <mxGeometry x="30" width="150" height="30" as="geometry">
            <mxRectangle width="150" height="30" as="alternateBounds" />
          </mxGeometry>
        </mxCell>
        <mxCell id="rOgcGrfOH9K6YcO0PpOx-20" value="" style="shape=tableRow;horizontal=0;startSize=0;swimlaneHead=0;swimlaneBody=0;fillColor=none;collapsible=0;dropTarget=0;points=[[0,0.5],[1,0.5]];portConstraint=eastwest;top=0;left=0;right=0;bottom=0;" vertex="1" parent="rOgcGrfOH9K6YcO0PpOx-1">
          <mxGeometry y="210" width="180" height="30" as="geometry" />
        </mxCell>
        <mxCell id="rOgcGrfOH9K6YcO0PpOx-21" value="" style="shape=partialRectangle;connectable=0;fillColor=none;top=0;left=0;bottom=0;right=0;editable=1;overflow=hidden;whiteSpace=wrap;html=1;" vertex="1" parent="rOgcGrfOH9K6YcO0PpOx-20">
          <mxGeometry width="30" height="30" as="geometry">
            <mxRectangle width="30" height="30" as="alternateBounds" />
          </mxGeometry>
        </mxCell>
        <mxCell id="rOgcGrfOH9K6YcO0PpOx-22" value="DescripcciÃ³n" style="shape=partialRectangle;connectable=0;fillColor=none;top=0;left=0;bottom=0;right=0;align=left;spacingLeft=6;overflow=hidden;whiteSpace=wrap;html=1;" vertex="1" parent="rOgcGrfOH9K6YcO0PpOx-20">
          <mxGeometry x="30" width="150" height="30" as="geometry">
            <mxRectangle width="150" height="30" as="alternateBounds" />
          </mxGeometry>
        </mxCell>
        <mxCell id="rOgcGrfOH9K6YcO0PpOx-23" value="" style="shape=tableRow;horizontal=0;startSize=0;swimlaneHead=0;swimlaneBody=0;fillColor=none;collapsible=0;dropTarget=0;points=[[0,0.5],[1,0.5]];portConstraint=eastwest;top=0;left=0;right=0;bottom=0;" vertex="1" parent="rOgcGrfOH9K6YcO0PpOx-1">
          <mxGeometry y="240" width="180" height="30" as="geometry" />
        </mxCell>
        <mxCell id="rOgcGrfOH9K6YcO0PpOx-24" value="" style="shape=partialRectangle;connectable=0;fillColor=none;top=0;left=0;bottom=0;right=0;editable=1;overflow=hidden;whiteSpace=wrap;html=1;" vertex="1" parent="rOgcGrfOH9K6YcO0PpOx-23">
          <mxGeometry width="30" height="30" as="geometry">
            <mxRectangle width="30" height="30" as="alternateBounds" />
          </mxGeometry>
        </mxCell>
        <mxCell id="rOgcGrfOH9K6YcO0PpOx-25" value="TamaÃ±o" style="shape=partialRectangle;connectable=0;fillColor=none;top=0;left=0;bottom=0;right=0;align=left;spacingLeft=6;overflow=hidden;whiteSpace=wrap;html=1;" vertex="1" parent="rOgcGrfOH9K6YcO0PpOx-23">
          <mxGeometry x="30" width="150" height="30" as="geometry">
            <mxRectangle width="150" height="30" as="alternateBounds" />
          </mxGeometry>
        </mxCell>
        <mxCell id="rOgcGrfOH9K6YcO0PpOx-26" value="" style="shape=tableRow;horizontal=0;startSize=0;swimlaneHead=0;swimlaneBody=0;fillColor=none;collapsible=0;dropTarget=0;points=[[0,0.5],[1,0.5]];portConstraint=eastwest;top=0;left=0;right=0;bottom=0;" vertex="1" parent="rOgcGrfOH9K6YcO0PpOx-1">
          <mxGeometry y="270" width="180" height="30" as="geometry" />
        </mxCell>
        <mxCell id="rOgcGrfOH9K6YcO0PpOx-27" value="" style="shape=partialRectangle;connectable=0;fillColor=none;top=0;left=0;bottom=0;right=0;editable=1;overflow=hidden;whiteSpace=wrap;html=1;" vertex="1" parent="rOgcGrfOH9K6YcO0PpOx-26">
          <mxGeometry width="30" height="30" as="geometry">
            <mxRectangle width="30" height="30" as="alternateBounds" />
          </mxGeometry>
        </mxCell>
        <mxCell id="rOgcGrfOH9K6YcO0PpOx-28" value="Precio" style="shape=partialRectangle;connectable=0;fillColor=none;top=0;left=0;bottom=0;right=0;align=left;spacingLeft=6;overflow=hidden;whiteSpace=wrap;html=1;" vertex="1" parent="rOgcGrfOH9K6YcO0PpOx-26">
          <mxGeometry x="30" width="150" height="30" as="geometry">
            <mxRectangle width="150" height="30" as="alternateBounds" />
          </mxGeometry>
        </mxCell>
        <mxCell id="rOgcGrfOH9K6YcO0PpOx-29" value="" style="shape=tableRow;horizontal=0;startSize=0;swimlaneHead=0;swimlaneBody=0;fillColor=none;collapsible=0;dropTarget=0;points=[[0,0.5],[1,0.5]];portConstraint=eastwest;top=0;left=0;right=0;bottom=0;" vertex="1" parent="rOgcGrfOH9K6YcO0PpOx-1">
          <mxGeometry y="300" width="180" height="30" as="geometry" />
        </mxCell>
        <mxCell id="rOgcGrfOH9K6YcO0PpOx-30" value="" style="shape=partialRectangle;connectable=0;fillColor=none;top=0;left=0;bottom=0;right=0;editable=1;overflow=hidden;whiteSpace=wrap;html=1;" vertex="1" parent="rOgcGrfOH9K6YcO0PpOx-29">
          <mxGeometry width="30" height="30" as="geometry">
            <mxRectangle width="30" height="30" as="alternateBounds" />
          </mxGeometry>
        </mxCell>
        <mxCell id="rOgcGrfOH9K6YcO0PpOx-31" value="Fecha" style="shape=partialRectangle;connectable=0;fillColor=none;top=0;left=0;bottom=0;right=0;align=left;spacingLeft=6;overflow=hidden;whiteSpace=wrap;html=1;" vertex="1" parent="rOgcGrfOH9K6YcO0PpOx-29">
          <mxGeometry x="30" width="150" height="30" as="geometry">
            <mxRectangle width="150" height="30" as="alternateBounds" />
          </mxGeometry>
        </mxCell>
        <mxCell id="rOgcGrfOH9K6YcO0PpOx-32" value="Usuario" style="shape=table;startSize=30;container=1;collapsible=1;childLayout=tableLayout;fixedRows=1;rowLines=0;fontStyle=1;align=center;resizeLast=1;html=1;" vertex="1" parent="rOgcGrfOH9K6YcO0PpOx-134">
          <mxGeometry x="311" y="150" width="180" height="240" as="geometry" />
        </mxCell>
        <mxCell id="rOgcGrfOH9K6YcO0PpOx-33" value="" style="shape=tableRow;horizontal=0;startSize=0;swimlaneHead=0;swimlaneBody=0;fillColor=none;collapsible=0;dropTarget=0;points=[[0,0.5],[1,0.5]];portConstraint=eastwest;top=0;left=0;right=0;bottom=1;" vertex="1" parent="rOgcGrfOH9K6YcO0PpOx-32">
          <mxGeometry y="30" width="180" height="30" as="geometry" />
        </mxCell>
        <mxCell id="rOgcGrfOH9K6YcO0PpOx-34" value="PK" style="shape=partialRectangle;connectable=0;fillColor=none;top=0;left=0;bottom=0;right=0;fontStyle=1;overflow=hidden;whiteSpace=wrap;html=1;" vertex="1" parent="rOgcGrfOH9K6YcO0PpOx-33">
          <mxGeometry width="30" height="30" as="geometry">
            <mxRectangle width="30" height="30" as="alternateBounds" />
          </mxGeometry>
        </mxCell>
        <mxCell id="rOgcGrfOH9K6YcO0PpOx-35" value="Correo" style="shape=partialRectangle;connectable=0;fillColor=none;top=0;left=0;bottom=0;right=0;align=left;spacingLeft=6;fontStyle=5;overflow=hidden;whiteSpace=wrap;html=1;" vertex="1" parent="rOgcGrfOH9K6YcO0PpOx-33">
          <mxGeometry x="30" width="150" height="30" as="geometry">
            <mxRectangle width="150" height="30" as="alternateBounds" />
          </mxGeometry>
        </mxCell>
        <mxCell id="rOgcGrfOH9K6YcO0PpOx-36" value="" style="shape=tableRow;horizontal=0;startSize=0;swimlaneHead=0;swimlaneBody=0;fillColor=none;collapsible=0;dropTarget=0;points=[[0,0.5],[1,0.5]];portConstraint=eastwest;top=0;left=0;right=0;bottom=0;" vertex="1" parent="rOgcGrfOH9K6YcO0PpOx-32">
          <mxGeometry y="60" width="180" height="30" as="geometry" />
        </mxCell>
        <mxCell id="rOgcGrfOH9K6YcO0PpOx-37" value="" style="shape=partialRectangle;connectable=0;fillColor=none;top=0;left=0;bottom=0;right=0;editable=1;overflow=hidden;whiteSpace=wrap;html=1;" vertex="1" parent="rOgcGrfOH9K6YcO0PpOx-36">
          <mxGeometry width="30" height="30" as="geometry">
            <mxRectangle width="30" height="30" as="alternateBounds" />
          </mxGeometry>
        </mxCell>
        <mxCell id="rOgcGrfOH9K6YcO0PpOx-38" value="FechaNacimiento" style="shape=partialRectangle;connectable=0;fillColor=none;top=0;left=0;bottom=0;right=0;align=left;spacingLeft=6;overflow=hidden;whiteSpace=wrap;html=1;" vertex="1" parent="rOgcGrfOH9K6YcO0PpOx-36">
          <mxGeometry x="30" width="150" height="30" as="geometry">
            <mxRectangle width="150" height="30" as="alternateBounds" />
          </mxGeometry>
        </mxCell>
        <mxCell id="rOgcGrfOH9K6YcO0PpOx-39" value="" style="shape=tableRow;horizontal=0;startSize=0;swimlaneHead=0;swimlaneBody=0;fillColor=none;collapsible=0;dropTarget=0;points=[[0,0.5],[1,0.5]];portConstraint=eastwest;top=0;left=0;right=0;bottom=0;" vertex="1" parent="rOgcGrfOH9K6YcO0PpOx-32">
          <mxGeometry y="90" width="180" height="30" as="geometry" />
        </mxCell>
        <mxCell id="rOgcGrfOH9K6YcO0PpOx-40" value="" style="shape=partialRectangle;connectable=0;fillColor=none;top=0;left=0;bottom=0;right=0;editable=1;overflow=hidden;whiteSpace=wrap;html=1;" vertex="1" parent="rOgcGrfOH9K6YcO0PpOx-39">
          <mxGeometry width="30" height="30" as="geometry">
            <mxRectangle width="30" height="30" as="alternateBounds" />
          </mxGeometry>
        </mxCell>
        <mxCell id="rOgcGrfOH9K6YcO0PpOx-41" value="ContraseÃ±a&lt;br&gt;" style="shape=partialRectangle;connectable=0;fillColor=none;top=0;left=0;bottom=0;right=0;align=left;spacingLeft=6;overflow=hidden;whiteSpace=wrap;html=1;" vertex="1" parent="rOgcGrfOH9K6YcO0PpOx-39">
          <mxGeometry x="30" width="150" height="30" as="geometry">
            <mxRectangle width="150" height="30" as="alternateBounds" />
          </mxGeometry>
        </mxCell>
        <mxCell id="rOgcGrfOH9K6YcO0PpOx-42" value="" style="shape=tableRow;horizontal=0;startSize=0;swimlaneHead=0;swimlaneBody=0;fillColor=none;collapsible=0;dropTarget=0;points=[[0,0.5],[1,0.5]];portConstraint=eastwest;top=0;left=0;right=0;bottom=0;" vertex="1" parent="rOgcGrfOH9K6YcO0PpOx-32">
          <mxGeometry y="120" width="180" height="30" as="geometry" />
        </mxCell>
        <mxCell id="rOgcGrfOH9K6YcO0PpOx-43" value="" style="shape=partialRectangle;connectable=0;fillColor=none;top=0;left=0;bottom=0;right=0;editable=1;overflow=hidden;whiteSpace=wrap;html=1;" vertex="1" parent="rOgcGrfOH9K6YcO0PpOx-42">
          <mxGeometry width="30" height="30" as="geometry">
            <mxRectangle width="30" height="30" as="alternateBounds" />
          </mxGeometry>
        </mxCell>
        <mxCell id="rOgcGrfOH9K6YcO0PpOx-44" value="Nombre" style="shape=partialRectangle;connectable=0;fillColor=none;top=0;left=0;bottom=0;right=0;align=left;spacingLeft=6;overflow=hidden;whiteSpace=wrap;html=1;" vertex="1" parent="rOgcGrfOH9K6YcO0PpOx-42">
          <mxGeometry x="30" width="150" height="30" as="geometry">
            <mxRectangle width="150" height="30" as="alternateBounds" />
          </mxGeometry>
        </mxCell>
        <mxCell id="rOgcGrfOH9K6YcO0PpOx-45" value="" style="shape=tableRow;horizontal=0;startSize=0;swimlaneHead=0;swimlaneBody=0;fillColor=none;collapsible=0;dropTarget=0;points=[[0,0.5],[1,0.5]];portConstraint=eastwest;top=0;left=0;right=0;bottom=0;" vertex="1" parent="rOgcGrfOH9K6YcO0PpOx-32">
          <mxGeometry y="150" width="180" height="30" as="geometry" />
        </mxCell>
        <mxCell id="rOgcGrfOH9K6YcO0PpOx-46" value="" style="shape=partialRectangle;connectable=0;fillColor=none;top=0;left=0;bottom=0;right=0;editable=1;overflow=hidden;whiteSpace=wrap;html=1;" vertex="1" parent="rOgcGrfOH9K6YcO0PpOx-45">
          <mxGeometry width="30" height="30" as="geometry">
            <mxRectangle width="30" height="30" as="alternateBounds" />
          </mxGeometry>
        </mxCell>
        <mxCell id="rOgcGrfOH9K6YcO0PpOx-47" value="ApellidoPaterno" style="shape=partialRectangle;connectable=0;fillColor=none;top=0;left=0;bottom=0;right=0;align=left;spacingLeft=6;overflow=hidden;whiteSpace=wrap;html=1;" vertex="1" parent="rOgcGrfOH9K6YcO0PpOx-45">
          <mxGeometry x="30" width="150" height="30" as="geometry">
            <mxRectangle width="150" height="30" as="alternateBounds" />
          </mxGeometry>
        </mxCell>
        <mxCell id="rOgcGrfOH9K6YcO0PpOx-48" value="" style="shape=tableRow;horizontal=0;startSize=0;swimlaneHead=0;swimlaneBody=0;fillColor=none;collapsible=0;dropTarget=0;points=[[0,0.5],[1,0.5]];portConstraint=eastwest;top=0;left=0;right=0;bottom=0;" vertex="1" parent="rOgcGrfOH9K6YcO0PpOx-32">
          <mxGeometry y="180" width="180" height="30" as="geometry" />
        </mxCell>
        <mxCell id="rOgcGrfOH9K6YcO0PpOx-49" value="" style="shape=partialRectangle;connectable=0;fillColor=none;top=0;left=0;bottom=0;right=0;editable=1;overflow=hidden;whiteSpace=wrap;html=1;" vertex="1" parent="rOgcGrfOH9K6YcO0PpOx-48">
          <mxGeometry width="30" height="30" as="geometry">
            <mxRectangle width="30" height="30" as="alternateBounds" />
          </mxGeometry>
        </mxCell>
        <mxCell id="rOgcGrfOH9K6YcO0PpOx-50" value="ApellidoMaterno" style="shape=partialRectangle;connectable=0;fillColor=none;top=0;left=0;bottom=0;right=0;align=left;spacingLeft=6;overflow=hidden;whiteSpace=wrap;html=1;" vertex="1" parent="rOgcGrfOH9K6YcO0PpOx-48">
          <mxGeometry x="30" width="150" height="30" as="geometry">
            <mxRectangle width="150" height="30" as="alternateBounds" />
          </mxGeometry>
        </mxCell>
        <mxCell id="rOgcGrfOH9K6YcO0PpOx-51" value="" style="shape=tableRow;horizontal=0;startSize=0;swimlaneHead=0;swimlaneBody=0;fillColor=none;collapsible=0;dropTarget=0;points=[[0,0.5],[1,0.5]];portConstraint=eastwest;top=0;left=0;right=0;bottom=0;" vertex="1" parent="rOgcGrfOH9K6YcO0PpOx-32">
          <mxGeometry y="210" width="180" height="30" as="geometry" />
        </mxCell>
        <mxCell id="rOgcGrfOH9K6YcO0PpOx-52" value="" style="shape=partialRectangle;connectable=0;fillColor=none;top=0;left=0;bottom=0;right=0;editable=1;overflow=hidden;whiteSpace=wrap;html=1;" vertex="1" parent="rOgcGrfOH9K6YcO0PpOx-51">
          <mxGeometry width="30" height="30" as="geometry">
            <mxRectangle width="30" height="30" as="alternateBounds" />
          </mxGeometry>
        </mxCell>
        <mxCell id="rOgcGrfOH9K6YcO0PpOx-53" value="Status" style="shape=partialRectangle;connectable=0;fillColor=none;top=0;left=0;bottom=0;right=0;align=left;spacingLeft=6;overflow=hidden;whiteSpace=wrap;html=1;" vertex="1" parent="rOgcGrfOH9K6YcO0PpOx-51">
          <mxGeometry x="30" width="150" height="30" as="geometry">
            <mxRectangle width="150" height="30" as="alternateBounds" />
          </mxGeometry>
        </mxCell>
        <mxCell id="rOgcGrfOH9K6YcO0PpOx-54" value="Insumo" style="shape=table;startSize=30;container=1;collapsible=1;childLayout=tableLayout;fixedRows=1;rowLines=0;fontStyle=1;align=center;resizeLast=1;html=1;" vertex="1" parent="rOgcGrfOH9K6YcO0PpOx-134">
          <mxGeometry x="560" y="270" width="180" height="210" as="geometry" />
        </mxCell>
        <mxCell id="rOgcGrfOH9K6YcO0PpOx-55" value="" style="shape=tableRow;horizontal=0;startSize=0;swimlaneHead=0;swimlaneBody=0;fillColor=none;collapsible=0;dropTarget=0;points=[[0,0.5],[1,0.5]];portConstraint=eastwest;top=0;left=0;right=0;bottom=1;" vertex="1" parent="rOgcGrfOH9K6YcO0PpOx-54">
          <mxGeometry y="30" width="180" height="30" as="geometry" />
        </mxCell>
        <mxCell id="rOgcGrfOH9K6YcO0PpOx-56" value="PK" style="shape=partialRectangle;connectable=0;fillColor=none;top=0;left=0;bottom=0;right=0;fontStyle=1;overflow=hidden;whiteSpace=wrap;html=1;" vertex="1" parent="rOgcGrfOH9K6YcO0PpOx-55">
          <mxGeometry width="30" height="30" as="geometry">
            <mxRectangle width="30" height="30" as="alternateBounds" />
          </mxGeometry>
        </mxCell>
        <mxCell id="rOgcGrfOH9K6YcO0PpOx-57" value="Gtin" style="shape=partialRectangle;connectable=0;fillColor=none;top=0;left=0;bottom=0;right=0;align=left;spacingLeft=6;fontStyle=5;overflow=hidden;whiteSpace=wrap;html=1;" vertex="1" parent="rOgcGrfOH9K6YcO0PpOx-55">
          <mxGeometry x="30" width="150" height="30" as="geometry">
            <mxRectangle width="150" height="30" as="alternateBounds" />
          </mxGeometry>
        </mxCell>
        <mxCell id="rOgcGrfOH9K6YcO0PpOx-58" value="" style="shape=tableRow;horizontal=0;startSize=0;swimlaneHead=0;swimlaneBody=0;fillColor=none;collapsible=0;dropTarget=0;points=[[0,0.5],[1,0.5]];portConstraint=eastwest;top=0;left=0;right=0;bottom=1;fontStyle=4" vertex="1" parent="rOgcGrfOH9K6YcO0PpOx-54">
          <mxGeometry y="60" width="180" height="30" as="geometry" />
        </mxCell>
        <mxCell id="rOgcGrfOH9K6YcO0PpOx-59" value="FK" style="shape=partialRectangle;connectable=0;fillColor=none;top=0;left=0;bottom=0;right=0;fontStyle=1;overflow=hidden;whiteSpace=wrap;html=1;" vertex="1" parent="rOgcGrfOH9K6YcO0PpOx-58">
          <mxGeometry width="30" height="30" as="geometry">
            <mxRectangle width="30" height="30" as="alternateBounds" />
          </mxGeometry>
        </mxCell>
        <mxCell id="rOgcGrfOH9K6YcO0PpOx-60" value="Correo" style="shape=partialRectangle;connectable=0;fillColor=none;top=0;left=0;bottom=0;right=0;align=left;spacingLeft=6;fontStyle=1;overflow=hidden;whiteSpace=wrap;html=1;" vertex="1" parent="rOgcGrfOH9K6YcO0PpOx-58">
          <mxGeometry x="30" width="150" height="30" as="geometry">
            <mxRectangle width="150" height="30" as="alternateBounds" />
          </mxGeometry>
        </mxCell>
        <mxCell id="rOgcGrfOH9K6YcO0PpOx-61" value="" style="shape=tableRow;horizontal=0;startSize=0;swimlaneHead=0;swimlaneBody=0;fillColor=none;collapsible=0;dropTarget=0;points=[[0,0.5],[1,0.5]];portConstraint=eastwest;top=0;left=0;right=0;bottom=0;" vertex="1" parent="rOgcGrfOH9K6YcO0PpOx-54">
          <mxGeometry y="90" width="180" height="30" as="geometry" />
        </mxCell>
        <mxCell id="rOgcGrfOH9K6YcO0PpOx-62" value="" style="shape=partialRectangle;connectable=0;fillColor=none;top=0;left=0;bottom=0;right=0;editable=1;overflow=hidden;whiteSpace=wrap;html=1;" vertex="1" parent="rOgcGrfOH9K6YcO0PpOx-61">
          <mxGeometry width="30" height="30" as="geometry">
            <mxRectangle width="30" height="30" as="alternateBounds" />
          </mxGeometry>
        </mxCell>
        <mxCell id="rOgcGrfOH9K6YcO0PpOx-63" value="Nombre" style="shape=partialRectangle;connectable=0;fillColor=none;top=0;left=0;bottom=0;right=0;align=left;spacingLeft=6;overflow=hidden;whiteSpace=wrap;html=1;" vertex="1" parent="rOgcGrfOH9K6YcO0PpOx-61">
          <mxGeometry x="30" width="150" height="30" as="geometry">
            <mxRectangle width="150" height="30" as="alternateBounds" />
          </mxGeometry>
        </mxCell>
        <mxCell id="rOgcGrfOH9K6YcO0PpOx-64" value="" style="shape=tableRow;horizontal=0;startSize=0;swimlaneHead=0;swimlaneBody=0;fillColor=none;collapsible=0;dropTarget=0;points=[[0,0.5],[1,0.5]];portConstraint=eastwest;top=0;left=0;right=0;bottom=0;" vertex="1" parent="rOgcGrfOH9K6YcO0PpOx-54">
          <mxGeometry y="120" width="180" height="30" as="geometry" />
        </mxCell>
        <mxCell id="rOgcGrfOH9K6YcO0PpOx-65" value="" style="shape=partialRectangle;connectable=0;fillColor=none;top=0;left=0;bottom=0;right=0;editable=1;overflow=hidden;whiteSpace=wrap;html=1;" vertex="1" parent="rOgcGrfOH9K6YcO0PpOx-64">
          <mxGeometry width="30" height="30" as="geometry">
            <mxRectangle width="30" height="30" as="alternateBounds" />
          </mxGeometry>
        </mxCell>
        <mxCell id="rOgcGrfOH9K6YcO0PpOx-66" value="Descripcion" style="shape=partialRectangle;connectable=0;fillColor=none;top=0;left=0;bottom=0;right=0;align=left;spacingLeft=6;overflow=hidden;whiteSpace=wrap;html=1;" vertex="1" parent="rOgcGrfOH9K6YcO0PpOx-64">
          <mxGeometry x="30" width="150" height="30" as="geometry">
            <mxRectangle width="150" height="30" as="alternateBounds" />
          </mxGeometry>
        </mxCell>
        <mxCell id="rOgcGrfOH9K6YcO0PpOx-67" value="" style="shape=tableRow;horizontal=0;startSize=0;swimlaneHead=0;swimlaneBody=0;fillColor=none;collapsible=0;dropTarget=0;points=[[0,0.5],[1,0.5]];portConstraint=eastwest;top=0;left=0;right=0;bottom=0;" vertex="1" parent="rOgcGrfOH9K6YcO0PpOx-54">
          <mxGeometry y="150" width="180" height="30" as="geometry" />
        </mxCell>
        <mxCell id="rOgcGrfOH9K6YcO0PpOx-68" value="" style="shape=partialRectangle;connectable=0;fillColor=none;top=0;left=0;bottom=0;right=0;editable=1;overflow=hidden;whiteSpace=wrap;html=1;" vertex="1" parent="rOgcGrfOH9K6YcO0PpOx-67">
          <mxGeometry width="30" height="30" as="geometry">
            <mxRectangle width="30" height="30" as="alternateBounds" />
          </mxGeometry>
        </mxCell>
        <mxCell id="rOgcGrfOH9K6YcO0PpOx-69" value="Precio" style="shape=partialRectangle;connectable=0;fillColor=none;top=0;left=0;bottom=0;right=0;align=left;spacingLeft=6;overflow=hidden;whiteSpace=wrap;html=1;" vertex="1" parent="rOgcGrfOH9K6YcO0PpOx-67">
          <mxGeometry x="30" width="150" height="30" as="geometry">
            <mxRectangle width="150" height="30" as="alternateBounds" />
          </mxGeometry>
        </mxCell>
        <mxCell id="rOgcGrfOH9K6YcO0PpOx-70" value="" style="shape=tableRow;horizontal=0;startSize=0;swimlaneHead=0;swimlaneBody=0;fillColor=none;collapsible=0;dropTarget=0;points=[[0,0.5],[1,0.5]];portConstraint=eastwest;top=0;left=0;right=0;bottom=0;" vertex="1" parent="rOgcGrfOH9K6YcO0PpOx-54">
          <mxGeometry y="180" width="180" height="30" as="geometry" />
        </mxCell>
        <mxCell id="rOgcGrfOH9K6YcO0PpOx-71" value="" style="shape=partialRectangle;connectable=0;fillColor=none;top=0;left=0;bottom=0;right=0;editable=1;overflow=hidden;whiteSpace=wrap;html=1;" vertex="1" parent="rOgcGrfOH9K6YcO0PpOx-70">
          <mxGeometry width="30" height="30" as="geometry">
            <mxRectangle width="30" height="30" as="alternateBounds" />
          </mxGeometry>
        </mxCell>
        <mxCell id="rOgcGrfOH9K6YcO0PpOx-72" value="Fecha" style="shape=partialRectangle;connectable=0;fillColor=none;top=0;left=0;bottom=0;right=0;align=left;spacingLeft=6;overflow=hidden;whiteSpace=wrap;html=1;" vertex="1" parent="rOgcGrfOH9K6YcO0PpOx-70">
          <mxGeometry x="30" width="150" height="30" as="geometry">
            <mxRectangle width="150" height="30" as="alternateBounds" />
          </mxGeometry>
        </mxCell>
        <mxCell id="rOgcGrfOH9K6YcO0PpOx-73" value="Cliente" style="shape=table;startSize=30;container=1;collapsible=1;childLayout=tableLayout;fixedRows=1;rowLines=0;fontStyle=1;align=center;resizeLast=1;html=1;" vertex="1" parent="rOgcGrfOH9K6YcO0PpOx-134">
          <mxGeometry x="311" y="445" width="180" height="120" as="geometry" />
        </mxCell>
        <mxCell id="rOgcGrfOH9K6YcO0PpOx-74" value="" style="shape=tableRow;horizontal=0;startSize=0;swimlaneHead=0;swimlaneBody=0;fillColor=none;collapsible=0;dropTarget=0;points=[[0,0.5],[1,0.5]];portConstraint=eastwest;top=0;left=0;right=0;bottom=1;" vertex="1" parent="rOgcGrfOH9K6YcO0PpOx-73">
          <mxGeometry y="30" width="180" height="30" as="geometry" />
        </mxCell>
        <mxCell id="rOgcGrfOH9K6YcO0PpOx-75" value="PK" style="shape=partialRectangle;connectable=0;fillColor=none;top=0;left=0;bottom=0;right=0;fontStyle=1;overflow=hidden;whiteSpace=wrap;html=1;" vertex="1" parent="rOgcGrfOH9K6YcO0PpOx-74">
          <mxGeometry width="30" height="30" as="geometry">
            <mxRectangle width="30" height="30" as="alternateBounds" />
          </mxGeometry>
        </mxCell>
        <mxCell id="rOgcGrfOH9K6YcO0PpOx-76" value="IdCliente" style="shape=partialRectangle;connectable=0;fillColor=none;top=0;left=0;bottom=0;right=0;align=left;spacingLeft=6;fontStyle=5;overflow=hidden;whiteSpace=wrap;html=1;" vertex="1" parent="rOgcGrfOH9K6YcO0PpOx-74">
          <mxGeometry x="30" width="150" height="30" as="geometry">
            <mxRectangle width="150" height="30" as="alternateBounds" />
          </mxGeometry>
        </mxCell>
        <mxCell id="rOgcGrfOH9K6YcO0PpOx-77" value="" style="shape=tableRow;horizontal=0;startSize=0;swimlaneHead=0;swimlaneBody=0;fillColor=none;collapsible=0;dropTarget=0;points=[[0,0.5],[1,0.5]];portConstraint=eastwest;top=0;left=0;right=0;bottom=0;" vertex="1" parent="rOgcGrfOH9K6YcO0PpOx-73">
          <mxGeometry y="60" width="180" height="30" as="geometry" />
        </mxCell>
        <mxCell id="rOgcGrfOH9K6YcO0PpOx-78" value="" style="shape=partialRectangle;connectable=0;fillColor=none;top=0;left=0;bottom=0;right=0;editable=1;overflow=hidden;whiteSpace=wrap;html=1;" vertex="1" parent="rOgcGrfOH9K6YcO0PpOx-77">
          <mxGeometry width="30" height="30" as="geometry">
            <mxRectangle width="30" height="30" as="alternateBounds" />
          </mxGeometry>
        </mxCell>
        <mxCell id="rOgcGrfOH9K6YcO0PpOx-79" value="Nombre" style="shape=partialRectangle;connectable=0;fillColor=none;top=0;left=0;bottom=0;right=0;align=left;spacingLeft=6;overflow=hidden;whiteSpace=wrap;html=1;" vertex="1" parent="rOgcGrfOH9K6YcO0PpOx-77">
          <mxGeometry x="30" width="150" height="30" as="geometry">
            <mxRectangle width="150" height="30" as="alternateBounds" />
          </mxGeometry>
        </mxCell>
        <mxCell id="rOgcGrfOH9K6YcO0PpOx-80" value="" style="shape=tableRow;horizontal=0;startSize=0;swimlaneHead=0;swimlaneBody=0;fillColor=none;collapsible=0;dropTarget=0;points=[[0,0.5],[1,0.5]];portConstraint=eastwest;top=0;left=0;right=0;bottom=0;" vertex="1" parent="rOgcGrfOH9K6YcO0PpOx-73">
          <mxGeometry y="90" width="180" height="30" as="geometry" />
        </mxCell>
        <mxCell id="rOgcGrfOH9K6YcO0PpOx-81" value="" style="shape=partialRectangle;connectable=0;fillColor=none;top=0;left=0;bottom=0;right=0;editable=1;overflow=hidden;whiteSpace=wrap;html=1;" vertex="1" parent="rOgcGrfOH9K6YcO0PpOx-80">
          <mxGeometry width="30" height="30" as="geometry">
            <mxRectangle width="30" height="30" as="alternateBounds" />
          </mxGeometry>
        </mxCell>
        <mxCell id="rOgcGrfOH9K6YcO0PpOx-82" value="Pagado" style="shape=partialRectangle;connectable=0;fillColor=none;top=0;left=0;bottom=0;right=0;align=left;spacingLeft=6;overflow=hidden;whiteSpace=wrap;html=1;" vertex="1" parent="rOgcGrfOH9K6YcO0PpOx-80">
          <mxGeometry x="30" width="150" height="30" as="geometry">
            <mxRectangle width="150" height="30" as="alternateBounds" />
          </mxGeometry>
        </mxCell>
        <mxCell id="rOgcGrfOH9K6YcO0PpOx-83" value="Sucursal" style="shape=table;startSize=30;container=1;collapsible=1;childLayout=tableLayout;fixedRows=1;rowLines=0;fontStyle=1;align=center;resizeLast=1;html=1;" vertex="1" parent="rOgcGrfOH9K6YcO0PpOx-134">
          <mxGeometry x="800" y="95" width="180" height="300" as="geometry" />
        </mxCell>
        <mxCell id="rOgcGrfOH9K6YcO0PpOx-84" value="" style="shape=tableRow;horizontal=0;startSize=0;swimlaneHead=0;swimlaneBody=0;fillColor=none;collapsible=0;dropTarget=0;points=[[0,0.5],[1,0.5]];portConstraint=eastwest;top=0;left=0;right=0;bottom=1;" vertex="1" parent="rOgcGrfOH9K6YcO0PpOx-83">
          <mxGeometry y="30" width="180" height="30" as="geometry" />
        </mxCell>
        <mxCell id="rOgcGrfOH9K6YcO0PpOx-85" value="PK" style="shape=partialRectangle;connectable=0;fillColor=none;top=0;left=0;bottom=0;right=0;fontStyle=1;overflow=hidden;whiteSpace=wrap;html=1;" vertex="1" parent="rOgcGrfOH9K6YcO0PpOx-84">
          <mxGeometry width="30" height="30" as="geometry">
            <mxRectangle width="30" height="30" as="alternateBounds" />
          </mxGeometry>
        </mxCell>
        <mxCell id="rOgcGrfOH9K6YcO0PpOx-86" value="IdSucursal" style="shape=partialRectangle;connectable=0;fillColor=none;top=0;left=0;bottom=0;right=0;align=left;spacingLeft=6;fontStyle=5;overflow=hidden;whiteSpace=wrap;html=1;" vertex="1" parent="rOgcGrfOH9K6YcO0PpOx-84">
          <mxGeometry x="30" width="150" height="30" as="geometry">
            <mxRectangle width="150" height="30" as="alternateBounds" />
          </mxGeometry>
        </mxCell>
        <mxCell id="rOgcGrfOH9K6YcO0PpOx-87" value="" style="shape=tableRow;horizontal=0;startSize=0;swimlaneHead=0;swimlaneBody=0;fillColor=none;collapsible=0;dropTarget=0;points=[[0,0.5],[1,0.5]];portConstraint=eastwest;top=0;left=0;right=0;bottom=0;" vertex="1" parent="rOgcGrfOH9K6YcO0PpOx-83">
          <mxGeometry y="60" width="180" height="30" as="geometry" />
        </mxCell>
        <mxCell id="rOgcGrfOH9K6YcO0PpOx-88" value="" style="shape=partialRectangle;connectable=0;fillColor=none;top=0;left=0;bottom=0;right=0;editable=1;overflow=hidden;whiteSpace=wrap;html=1;" vertex="1" parent="rOgcGrfOH9K6YcO0PpOx-87">
          <mxGeometry width="30" height="30" as="geometry">
            <mxRectangle width="30" height="30" as="alternateBounds" />
          </mxGeometry>
        </mxCell>
        <mxCell id="rOgcGrfOH9K6YcO0PpOx-89" value="Nombre" style="shape=partialRectangle;connectable=0;fillColor=none;top=0;left=0;bottom=0;right=0;align=left;spacingLeft=6;overflow=hidden;whiteSpace=wrap;html=1;" vertex="1" parent="rOgcGrfOH9K6YcO0PpOx-87">
          <mxGeometry x="30" width="150" height="30" as="geometry">
            <mxRectangle width="150" height="30" as="alternateBounds" />
          </mxGeometry>
        </mxCell>
        <mxCell id="rOgcGrfOH9K6YcO0PpOx-90" value="" style="shape=tableRow;horizontal=0;startSize=0;swimlaneHead=0;swimlaneBody=0;fillColor=none;collapsible=0;dropTarget=0;points=[[0,0.5],[1,0.5]];portConstraint=eastwest;top=0;left=0;right=0;bottom=0;" vertex="1" parent="rOgcGrfOH9K6YcO0PpOx-83">
          <mxGeometry y="90" width="180" height="30" as="geometry" />
        </mxCell>
        <mxCell id="rOgcGrfOH9K6YcO0PpOx-91" value="" style="shape=partialRectangle;connectable=0;fillColor=none;top=0;left=0;bottom=0;right=0;editable=1;overflow=hidden;whiteSpace=wrap;html=1;" vertex="1" parent="rOgcGrfOH9K6YcO0PpOx-90">
          <mxGeometry width="30" height="30" as="geometry">
            <mxRectangle width="30" height="30" as="alternateBounds" />
          </mxGeometry>
        </mxCell>
        <mxCell id="rOgcGrfOH9K6YcO0PpOx-92" value="InaguraciÃ³n" style="shape=partialRectangle;connectable=0;fillColor=none;top=0;left=0;bottom=0;right=0;align=left;spacingLeft=6;overflow=hidden;whiteSpace=wrap;html=1;" vertex="1" parent="rOgcGrfOH9K6YcO0PpOx-90">
          <mxGeometry x="30" width="150" height="30" as="geometry">
            <mxRectangle width="150" height="30" as="alternateBounds" />
          </mxGeometry>
        </mxCell>
        <mxCell id="rOgcGrfOH9K6YcO0PpOx-93" value="" style="shape=tableRow;horizontal=0;startSize=0;swimlaneHead=0;swimlaneBody=0;fillColor=none;collapsible=0;dropTarget=0;points=[[0,0.5],[1,0.5]];portConstraint=eastwest;top=0;left=0;right=0;bottom=0;" vertex="1" parent="rOgcGrfOH9K6YcO0PpOx-83">
          <mxGeometry y="120" width="180" height="30" as="geometry" />
        </mxCell>
        <mxCell id="rOgcGrfOH9K6YcO0PpOx-94" value="" style="shape=partialRectangle;connectable=0;fillColor=none;top=0;left=0;bottom=0;right=0;editable=1;overflow=hidden;whiteSpace=wrap;html=1;" vertex="1" parent="rOgcGrfOH9K6YcO0PpOx-93">
          <mxGeometry width="30" height="30" as="geometry">
            <mxRectangle width="30" height="30" as="alternateBounds" />
          </mxGeometry>
        </mxCell>
        <mxCell id="rOgcGrfOH9K6YcO0PpOx-95" value="PaÃ­s" style="shape=partialRectangle;connectable=0;fillColor=none;top=0;left=0;bottom=0;right=0;align=left;spacingLeft=6;overflow=hidden;whiteSpace=wrap;html=1;" vertex="1" parent="rOgcGrfOH9K6YcO0PpOx-93">
          <mxGeometry x="30" width="150" height="30" as="geometry">
            <mxRectangle width="150" height="30" as="alternateBounds" />
          </mxGeometry>
        </mxCell>
        <mxCell id="rOgcGrfOH9K6YcO0PpOx-96" value="" style="shape=tableRow;horizontal=0;startSize=0;swimlaneHead=0;swimlaneBody=0;fillColor=none;collapsible=0;dropTarget=0;points=[[0,0.5],[1,0.5]];portConstraint=eastwest;top=0;left=0;right=0;bottom=0;" vertex="1" parent="rOgcGrfOH9K6YcO0PpOx-83">
          <mxGeometry y="150" width="180" height="30" as="geometry" />
        </mxCell>
        <mxCell id="rOgcGrfOH9K6YcO0PpOx-97" value="" style="shape=partialRectangle;connectable=0;fillColor=none;top=0;left=0;bottom=0;right=0;editable=1;overflow=hidden;whiteSpace=wrap;html=1;" vertex="1" parent="rOgcGrfOH9K6YcO0PpOx-96">
          <mxGeometry width="30" height="30" as="geometry">
            <mxRectangle width="30" height="30" as="alternateBounds" />
          </mxGeometry>
        </mxCell>
        <mxCell id="rOgcGrfOH9K6YcO0PpOx-98" value="Ciudad" style="shape=partialRectangle;connectable=0;fillColor=none;top=0;left=0;bottom=0;right=0;align=left;spacingLeft=6;overflow=hidden;whiteSpace=wrap;html=1;" vertex="1" parent="rOgcGrfOH9K6YcO0PpOx-96">
          <mxGeometry x="30" width="150" height="30" as="geometry">
            <mxRectangle width="150" height="30" as="alternateBounds" />
          </mxGeometry>
        </mxCell>
        <mxCell id="rOgcGrfOH9K6YcO0PpOx-99" value="" style="shape=tableRow;horizontal=0;startSize=0;swimlaneHead=0;swimlaneBody=0;fillColor=none;collapsible=0;dropTarget=0;points=[[0,0.5],[1,0.5]];portConstraint=eastwest;top=0;left=0;right=0;bottom=0;" vertex="1" parent="rOgcGrfOH9K6YcO0PpOx-83">
          <mxGeometry y="180" width="180" height="30" as="geometry" />
        </mxCell>
        <mxCell id="rOgcGrfOH9K6YcO0PpOx-100" value="" style="shape=partialRectangle;connectable=0;fillColor=none;top=0;left=0;bottom=0;right=0;editable=1;overflow=hidden;whiteSpace=wrap;html=1;" vertex="1" parent="rOgcGrfOH9K6YcO0PpOx-99">
          <mxGeometry width="30" height="30" as="geometry">
            <mxRectangle width="30" height="30" as="alternateBounds" />
          </mxGeometry>
        </mxCell>
        <mxCell id="rOgcGrfOH9K6YcO0PpOx-101" value="Municipio" style="shape=partialRectangle;connectable=0;fillColor=none;top=0;left=0;bottom=0;right=0;align=left;spacingLeft=6;overflow=hidden;whiteSpace=wrap;html=1;" vertex="1" parent="rOgcGrfOH9K6YcO0PpOx-99">
          <mxGeometry x="30" width="150" height="30" as="geometry">
            <mxRectangle width="150" height="30" as="alternateBounds" />
          </mxGeometry>
        </mxCell>
        <mxCell id="rOgcGrfOH9K6YcO0PpOx-102" value="" style="shape=tableRow;horizontal=0;startSize=0;swimlaneHead=0;swimlaneBody=0;fillColor=none;collapsible=0;dropTarget=0;points=[[0,0.5],[1,0.5]];portConstraint=eastwest;top=0;left=0;right=0;bottom=0;" vertex="1" parent="rOgcGrfOH9K6YcO0PpOx-83">
          <mxGeometry y="210" width="180" height="30" as="geometry" />
        </mxCell>
        <mxCell id="rOgcGrfOH9K6YcO0PpOx-103" value="" style="shape=partialRectangle;connectable=0;fillColor=none;top=0;left=0;bottom=0;right=0;editable=1;overflow=hidden;whiteSpace=wrap;html=1;" vertex="1" parent="rOgcGrfOH9K6YcO0PpOx-102">
          <mxGeometry width="30" height="30" as="geometry">
            <mxRectangle width="30" height="30" as="alternateBounds" />
          </mxGeometry>
        </mxCell>
        <mxCell id="rOgcGrfOH9K6YcO0PpOx-104" value="Calle" style="shape=partialRectangle;connectable=0;fillColor=none;top=0;left=0;bottom=0;right=0;align=left;spacingLeft=6;overflow=hidden;whiteSpace=wrap;html=1;" vertex="1" parent="rOgcGrfOH9K6YcO0PpOx-102">
          <mxGeometry x="30" width="150" height="30" as="geometry">
            <mxRectangle width="150" height="30" as="alternateBounds" />
          </mxGeometry>
        </mxCell>
        <mxCell id="rOgcGrfOH9K6YcO0PpOx-105" value="" style="shape=tableRow;horizontal=0;startSize=0;swimlaneHead=0;swimlaneBody=0;fillColor=none;collapsible=0;dropTarget=0;points=[[0,0.5],[1,0.5]];portConstraint=eastwest;top=0;left=0;right=0;bottom=0;" vertex="1" parent="rOgcGrfOH9K6YcO0PpOx-83">
          <mxGeometry y="240" width="180" height="30" as="geometry" />
        </mxCell>
        <mxCell id="rOgcGrfOH9K6YcO0PpOx-106" value="" style="shape=partialRectangle;connectable=0;fillColor=none;top=0;left=0;bottom=0;right=0;editable=1;overflow=hidden;whiteSpace=wrap;html=1;" vertex="1" parent="rOgcGrfOH9K6YcO0PpOx-105">
          <mxGeometry width="30" height="30" as="geometry">
            <mxRectangle width="30" height="30" as="alternateBounds" />
          </mxGeometry>
        </mxCell>
        <mxCell id="rOgcGrfOH9K6YcO0PpOx-107" value="Colonia" style="shape=partialRectangle;connectable=0;fillColor=none;top=0;left=0;bottom=0;right=0;align=left;spacingLeft=6;overflow=hidden;whiteSpace=wrap;html=1;" vertex="1" parent="rOgcGrfOH9K6YcO0PpOx-105">
          <mxGeometry x="30" width="150" height="30" as="geometry">
            <mxRectangle width="150" height="30" as="alternateBounds" />
          </mxGeometry>
        </mxCell>
        <mxCell id="rOgcGrfOH9K6YcO0PpOx-108" value="" style="shape=tableRow;horizontal=0;startSize=0;swimlaneHead=0;swimlaneBody=0;fillColor=none;collapsible=0;dropTarget=0;points=[[0,0.5],[1,0.5]];portConstraint=eastwest;top=0;left=0;right=0;bottom=0;" vertex="1" parent="rOgcGrfOH9K6YcO0PpOx-83">
          <mxGeometry y="270" width="180" height="30" as="geometry" />
        </mxCell>
        <mxCell id="rOgcGrfOH9K6YcO0PpOx-109" value="" style="shape=partialRectangle;connectable=0;fillColor=none;top=0;left=0;bottom=0;right=0;editable=1;overflow=hidden;whiteSpace=wrap;html=1;" vertex="1" parent="rOgcGrfOH9K6YcO0PpOx-108">
          <mxGeometry width="30" height="30" as="geometry">
            <mxRectangle width="30" height="30" as="alternateBounds" />
          </mxGeometry>
        </mxCell>
        <mxCell id="rOgcGrfOH9K6YcO0PpOx-110" value="NÃºmero" style="shape=partialRectangle;connectable=0;fillColor=none;top=0;left=0;bottom=0;right=0;align=left;spacingLeft=6;overflow=hidden;whiteSpace=wrap;html=1;" vertex="1" parent="rOgcGrfOH9K6YcO0PpOx-108">
          <mxGeometry x="30" width="150" height="30" as="geometry">
            <mxRectangle width="150" height="30" as="alternateBounds" />
          </mxGeometry>
        </mxCell>
        <mxCell id="rOgcGrfOH9K6YcO0PpOx-111" value="CategorÃ­a" style="shape=table;startSize=30;container=1;collapsible=1;childLayout=tableLayout;fixedRows=1;rowLines=0;fontStyle=1;align=center;resizeLast=1;html=1;" vertex="1" parent="rOgcGrfOH9K6YcO0PpOx-134">
          <mxGeometry x="311" width="180" height="120" as="geometry" />
        </mxCell>
        <mxCell id="rOgcGrfOH9K6YcO0PpOx-112" value="" style="shape=tableRow;horizontal=0;startSize=0;swimlaneHead=0;swimlaneBody=0;fillColor=none;collapsible=0;dropTarget=0;points=[[0,0.5],[1,0.5]];portConstraint=eastwest;top=0;left=0;right=0;bottom=1;" vertex="1" parent="rOgcGrfOH9K6YcO0PpOx-111">
          <mxGeometry y="30" width="180" height="30" as="geometry" />
        </mxCell>
        <mxCell id="rOgcGrfOH9K6YcO0PpOx-113" value="PK" style="shape=partialRectangle;connectable=0;fillColor=none;top=0;left=0;bottom=0;right=0;fontStyle=1;overflow=hidden;whiteSpace=wrap;html=1;" vertex="1" parent="rOgcGrfOH9K6YcO0PpOx-112">
          <mxGeometry width="30" height="30" as="geometry">
            <mxRectangle width="30" height="30" as="alternateBounds" />
          </mxGeometry>
        </mxCell>
        <mxCell id="rOgcGrfOH9K6YcO0PpOx-114" value="IdCategorÃ­a" style="shape=partialRectangle;connectable=0;fillColor=none;top=0;left=0;bottom=0;right=0;align=left;spacingLeft=6;fontStyle=5;overflow=hidden;whiteSpace=wrap;html=1;" vertex="1" parent="rOgcGrfOH9K6YcO0PpOx-112">
          <mxGeometry x="30" width="150" height="30" as="geometry">
            <mxRectangle width="150" height="30" as="alternateBounds" />
          </mxGeometry>
        </mxCell>
        <mxCell id="rOgcGrfOH9K6YcO0PpOx-115" value="" style="shape=tableRow;horizontal=0;startSize=0;swimlaneHead=0;swimlaneBody=0;fillColor=none;collapsible=0;dropTarget=0;points=[[0,0.5],[1,0.5]];portConstraint=eastwest;top=0;left=0;right=0;bottom=0;" vertex="1" parent="rOgcGrfOH9K6YcO0PpOx-111">
          <mxGeometry y="60" width="180" height="30" as="geometry" />
        </mxCell>
        <mxCell id="rOgcGrfOH9K6YcO0PpOx-116" value="" style="shape=partialRectangle;connectable=0;fillColor=none;top=0;left=0;bottom=0;right=0;editable=1;overflow=hidden;whiteSpace=wrap;html=1;" vertex="1" parent="rOgcGrfOH9K6YcO0PpOx-115">
          <mxGeometry width="30" height="30" as="geometry">
            <mxRectangle width="30" height="30" as="alternateBounds" />
          </mxGeometry>
        </mxCell>
        <mxCell id="rOgcGrfOH9K6YcO0PpOx-117" value="Nombre" style="shape=partialRectangle;connectable=0;fillColor=none;top=0;left=0;bottom=0;right=0;align=left;spacingLeft=6;overflow=hidden;whiteSpace=wrap;html=1;" vertex="1" parent="rOgcGrfOH9K6YcO0PpOx-115">
          <mxGeometry x="30" width="150" height="30" as="geometry">
            <mxRectangle width="150" height="30" as="alternateBounds" />
          </mxGeometry>
        </mxCell>
        <mxCell id="rOgcGrfOH9K6YcO0PpOx-118" value="" style="shape=tableRow;horizontal=0;startSize=0;swimlaneHead=0;swimlaneBody=0;fillColor=none;collapsible=0;dropTarget=0;points=[[0,0.5],[1,0.5]];portConstraint=eastwest;top=0;left=0;right=0;bottom=0;" vertex="1" parent="rOgcGrfOH9K6YcO0PpOx-111">
          <mxGeometry y="90" width="180" height="30" as="geometry" />
        </mxCell>
        <mxCell id="rOgcGrfOH9K6YcO0PpOx-119" value="" style="shape=partialRectangle;connectable=0;fillColor=none;top=0;left=0;bottom=0;right=0;editable=1;overflow=hidden;whiteSpace=wrap;html=1;" vertex="1" parent="rOgcGrfOH9K6YcO0PpOx-118">
          <mxGeometry width="30" height="30" as="geometry">
            <mxRectangle width="30" height="30" as="alternateBounds" />
          </mxGeometry>
        </mxCell>
        <mxCell id="rOgcGrfOH9K6YcO0PpOx-120" value="Descripcion" style="shape=partialRectangle;connectable=0;fillColor=none;top=0;left=0;bottom=0;right=0;align=left;spacingLeft=6;overflow=hidden;whiteSpace=wrap;html=1;" vertex="1" parent="rOgcGrfOH9K6YcO0PpOx-118">
          <mxGeometry x="30" width="150" height="30" as="geometry">
            <mxRectangle width="150" height="30" as="alternateBounds" />
          </mxGeometry>
        </mxCell>
        <mxCell id="rOgcGrfOH9K6YcO0PpOx-121" value="Registrar" style="shape=table;startSize=30;container=1;collapsible=1;childLayout=tableLayout;fixedRows=1;rowLines=0;fontStyle=1;align=center;resizeLast=1;html=1;" vertex="1" parent="rOgcGrfOH9K6YcO0PpOx-134">
          <mxGeometry x="560" y="110" width="180" height="90" as="geometry" />
        </mxCell>
        <mxCell id="rOgcGrfOH9K6YcO0PpOx-122" value="" style="shape=tableRow;horizontal=0;startSize=0;swimlaneHead=0;swimlaneBody=0;fillColor=none;collapsible=0;dropTarget=0;points=[[0,0.5],[1,0.5]];portConstraint=eastwest;top=0;left=0;right=0;bottom=1;" vertex="1" parent="rOgcGrfOH9K6YcO0PpOx-121">
          <mxGeometry y="30" width="180" height="30" as="geometry" />
        </mxCell>
        <mxCell id="rOgcGrfOH9K6YcO0PpOx-123" value="FK" style="shape=partialRectangle;connectable=0;fillColor=none;top=0;left=0;bottom=0;right=0;fontStyle=1;overflow=hidden;whiteSpace=wrap;html=1;" vertex="1" parent="rOgcGrfOH9K6YcO0PpOx-122">
          <mxGeometry width="30" height="30" as="geometry">
            <mxRectangle width="30" height="30" as="alternateBounds" />
          </mxGeometry>
        </mxCell>
        <mxCell id="rOgcGrfOH9K6YcO0PpOx-124" value="IdSucursal" style="shape=partialRectangle;connectable=0;fillColor=none;top=0;left=0;bottom=0;right=0;align=left;spacingLeft=6;fontStyle=1;overflow=hidden;whiteSpace=wrap;html=1;" vertex="1" parent="rOgcGrfOH9K6YcO0PpOx-122">
          <mxGeometry x="30" width="150" height="30" as="geometry">
            <mxRectangle width="150" height="30" as="alternateBounds" />
          </mxGeometry>
        </mxCell>
        <mxCell id="rOgcGrfOH9K6YcO0PpOx-125" value="" style="shape=tableRow;horizontal=0;startSize=0;swimlaneHead=0;swimlaneBody=0;fillColor=none;collapsible=0;dropTarget=0;points=[[0,0.5],[1,0.5]];portConstraint=eastwest;top=0;left=0;right=0;bottom=1;" vertex="1" parent="rOgcGrfOH9K6YcO0PpOx-121">
          <mxGeometry y="60" width="180" height="30" as="geometry" />
        </mxCell>
        <mxCell id="rOgcGrfOH9K6YcO0PpOx-126" value="FK" style="shape=partialRectangle;connectable=0;fillColor=none;top=0;left=0;bottom=0;right=0;fontStyle=1;overflow=hidden;whiteSpace=wrap;html=1;" vertex="1" parent="rOgcGrfOH9K6YcO0PpOx-125">
          <mxGeometry width="30" height="30" as="geometry">
            <mxRectangle width="30" height="30" as="alternateBounds" />
          </mxGeometry>
        </mxCell>
        <mxCell id="rOgcGrfOH9K6YcO0PpOx-127" value="Correo" style="shape=partialRectangle;connectable=0;fillColor=none;top=0;left=0;bottom=0;right=0;align=left;spacingLeft=6;fontStyle=1;overflow=hidden;whiteSpace=wrap;html=1;" vertex="1" parent="rOgcGrfOH9K6YcO0PpOx-125">
          <mxGeometry x="30" width="150" height="30" as="geometry">
            <mxRectangle width="150" height="30" as="alternateBounds" />
          </mxGeometry>
        </mxCell>
        <mxCell id="rOgcGrfOH9K6YcO0PpOx-128" value="" style="edgeStyle=entityRelationEdgeStyle;fontSize=12;html=1;endArrow=ERoneToMany;startArrow=ERoneToMany;rounded=0;" edge="1" parent="rOgcGrfOH9K6YcO0PpOx-134" source="rOgcGrfOH9K6YcO0PpOx-5" target="rOgcGrfOH9K6YcO0PpOx-112">
          <mxGeometry width="100" height="100" relative="1" as="geometry">
            <mxPoint x="190" y="240" as="sourcePoint" />
            <mxPoint x="300" y="95.00000000000011" as="targetPoint" />
          </mxGeometry>
        </mxCell>
        <mxCell id="rOgcGrfOH9K6YcO0PpOx-129" value="" style="edgeStyle=entityRelationEdgeStyle;fontSize=12;html=1;endArrow=ERoneToMany;startArrow=ERzeroToOne;rounded=0;" edge="1" parent="rOgcGrfOH9K6YcO0PpOx-134" source="rOgcGrfOH9K6YcO0PpOx-33" target="rOgcGrfOH9K6YcO0PpOx-11">
          <mxGeometry width="100" height="100" relative="1" as="geometry">
            <mxPoint x="330" y="280" as="sourcePoint" />
            <mxPoint x="430" y="180" as="targetPoint" />
          </mxGeometry>
        </mxCell>
        <mxCell id="rOgcGrfOH9K6YcO0PpOx-130" value="" style="edgeStyle=entityRelationEdgeStyle;fontSize=12;html=1;endArrow=ERoneToMany;startArrow=ERoneToMany;rounded=0;" edge="1" parent="rOgcGrfOH9K6YcO0PpOx-134" source="rOgcGrfOH9K6YcO0PpOx-8" target="rOgcGrfOH9K6YcO0PpOx-74">
          <mxGeometry width="100" height="100" relative="1" as="geometry">
            <mxPoint x="340" y="420" as="sourcePoint" />
            <mxPoint x="440" y="320" as="targetPoint" />
          </mxGeometry>
        </mxCell>
        <mxCell id="rOgcGrfOH9K6YcO0PpOx-131" value="" style="edgeStyle=entityRelationEdgeStyle;fontSize=12;html=1;endArrow=ERoneToMany;startArrow=ERzeroToOne;rounded=0;startFill=0;" edge="1" parent="rOgcGrfOH9K6YcO0PpOx-134" source="rOgcGrfOH9K6YcO0PpOx-84" target="rOgcGrfOH9K6YcO0PpOx-122">
          <mxGeometry width="100" height="100" relative="1" as="geometry">
            <mxPoint x="510" y="280" as="sourcePoint" />
            <mxPoint x="610" y="180" as="targetPoint" />
          </mxGeometry>
        </mxCell>
        <mxCell id="rOgcGrfOH9K6YcO0PpOx-132" value="" style="edgeStyle=entityRelationEdgeStyle;fontSize=12;html=1;endArrow=ERoneToMany;startArrow=ERoneToMany;rounded=0;" edge="1" parent="rOgcGrfOH9K6YcO0PpOx-134" source="rOgcGrfOH9K6YcO0PpOx-33" target="rOgcGrfOH9K6YcO0PpOx-125">
          <mxGeometry width="100" height="100" relative="1" as="geometry">
            <mxPoint x="510" y="280" as="sourcePoint" />
            <mxPoint x="610" y="180" as="targetPoint" />
          </mxGeometry>
        </mxCell>
        <mxCell id="rOgcGrfOH9K6YcO0PpOx-133" value="" style="edgeStyle=entityRelationEdgeStyle;fontSize=12;html=1;endArrow=ERoneToMany;startArrow=ERzeroToMany;rounded=0;startFill=0;exitX=1.004;exitY=0.898;exitDx=0;exitDy=0;exitPerimeter=0;" edge="1" parent="rOgcGrfOH9K6YcO0PpOx-134" source="rOgcGrfOH9K6YcO0PpOx-33" target="rOgcGrfOH9K6YcO0PpOx-58">
          <mxGeometry width="100" height="100" relative="1" as="geometry">
            <mxPoint x="501" y="205" as="sourcePoint" />
            <mxPoint x="570" y="195" as="targetPoint" />
          </mxGeometry>
        </mxCell>
      </root>
    </mxGraphModel>
  </diagram>
</mxfile>
